<svg width="1158" height="214" viewBox="0 0 1158 214" fill="none" xmlns="http://www.w3.org/2000/svg">
<path d="M54.8322 0.0319977C54.3842 4.576 54.1602 8.672 54.1602 12.32C54.1602 15.52 54.2562 18.144 54.4482 20.192H52.2402C51.7282 15.264 51.0882 11.616 50.3202 9.24799C49.5522 6.81599 48.2082 5.05599 46.2882 3.96799C44.3682 2.81599 41.4242 2.23999 37.4562 2.23999H32.2722V56.864C32.2722 59.552 32.5282 61.504 33.0402 62.72C33.5522 63.936 34.4482 64.768 35.7282 65.216C37.0082 65.664 39.0882 65.952 41.9682 66.08V68C38.6402 67.808 33.9362 67.712 27.8562 67.712C21.4562 67.712 16.7202 67.808 13.6482 68V66.08C16.5282 65.952 18.6082 65.664 19.8882 65.216C21.1682 64.768 22.0642 63.936 22.5762 62.72C23.0882 61.504 23.3442 59.552 23.3442 56.864V2.23999H18.1602C14.1922 2.23999 11.2482 2.81599 9.32818 3.96799C7.40818 5.05599 6.06418 6.81599 5.29618 9.24799C4.52818 11.616 3.88818 15.264 3.37618 20.192H1.16818C1.36018 18.144 1.45618 15.52 1.45618 12.32C1.45618 8.672 1.23218 4.576 0.78418 0.0319977C6.09618 0.223995 15.1202 0.319994 27.8562 0.319994C40.5282 0.319994 49.5202 0.223995 54.8322 0.0319977Z" fill="#1E1E1E"/>
<path d="M125.305 11.552C123.001 11.68 121.305 11.936 120.217 12.32C119.193 12.704 118.489 13.44 118.105 14.528C117.721 15.616 117.529 17.376 117.529 19.808V57.824C117.529 60.256 117.721 62.016 118.105 63.104C118.489 64.192 119.193 64.928 120.217 65.312C121.305 65.696 123.001 65.952 125.305 66.08V68C122.617 67.808 118.521 67.712 113.017 67.712C107.897 67.712 103.833 67.808 100.825 68V66.08C103.129 65.952 104.793 65.696 105.817 65.312C106.905 64.928 107.641 64.192 108.025 63.104C108.409 62.016 108.601 60.256 108.601 57.824V38.72H79.3212V57.824C79.3212 60.256 79.5132 62.016 79.8972 63.104C80.2812 64.192 80.9852 64.928 82.0092 65.312C83.0972 65.696 84.7932 65.952 87.0972 66.08V68C84.1532 67.808 80.0892 67.712 74.9052 67.712C69.4012 67.712 65.3052 67.808 62.6172 68V66.08C64.9212 65.952 66.5852 65.696 67.6092 65.312C68.6972 64.928 69.4332 64.192 69.8172 63.104C70.2012 62.016 70.3932 60.256 70.3932 57.824V19.808C70.3932 17.376 70.2012 15.616 69.8172 14.528C69.4332 13.44 68.6972 12.704 67.6092 12.32C66.5852 11.936 64.9212 11.68 62.6172 11.552V9.63199C65.3052 9.824 69.4012 9.92 74.9052 9.92C80.0252 9.92 84.0892 9.824 87.0972 9.63199V11.552C84.7932 11.68 83.0972 11.936 82.0092 12.32C80.9852 12.704 80.2812 13.44 79.8972 14.528C79.5132 15.616 79.3212 17.376 79.3212 19.808V36.8H108.601V19.808C108.601 17.376 108.409 15.616 108.025 14.528C107.641 13.44 106.905 12.704 105.817 12.32C104.793 11.936 103.129 11.68 100.825 11.552V9.63199C103.769 9.824 107.833 9.92 113.017 9.92C118.521 9.92 122.617 9.824 125.305 9.63199V11.552Z" fill="#1E1E1E"/>
<path d="M181.59 56.672C181.59 60 181.814 63.776 182.262 68C178.102 67.808 171.094 67.712 161.238 67.712C149.398 67.712 140.438 67.808 134.358 68V66.08C136.662 65.952 138.326 65.696 139.35 65.312C140.438 64.928 141.174 64.192 141.558 63.104C141.942 62.016 142.134 60.256 142.134 57.824V19.808C142.134 17.376 141.942 15.616 141.558 14.528C141.174 13.44 140.438 12.704 139.35 12.32C138.326 11.936 136.662 11.68 134.358 11.552V9.63199C140.438 9.824 149.398 9.92 161.238 9.92C170.198 9.92 176.566 9.824 180.342 9.63199C179.894 13.472 179.67 16.928 179.67 20C179.67 22.496 179.766 24.48 179.958 25.952H177.75C177.302 20.704 176.182 17.056 174.39 15.008C172.662 12.896 169.814 11.84 165.846 11.84H158.838C156.534 11.84 154.838 12.032 153.75 12.416C152.726 12.736 152.022 13.44 151.638 14.528C151.254 15.616 151.062 17.376 151.062 19.808V37.664H159.03C161.078 37.664 162.646 37.152 163.734 36.128C164.822 35.04 165.558 33.888 165.942 32.672C166.326 31.392 166.678 29.792 166.998 27.872H169.206C169.014 30.048 168.918 32.416 168.918 34.976V38.624C168.918 41.12 169.11 44.704 169.494 49.376H167.286C166.902 46.304 166.166 43.904 165.078 42.176C163.99 40.448 161.974 39.584 159.03 39.584H151.062V57.824C151.062 60.256 151.254 62.016 151.638 63.104C152.022 64.192 152.726 64.928 153.75 65.312C154.838 65.632 156.534 65.792 158.838 65.792H165.846C169.046 65.792 171.574 65.28 173.43 64.256C175.286 63.232 176.694 61.6 177.654 59.36C178.614 57.056 179.286 53.856 179.67 49.76H181.878C181.686 51.488 181.59 53.792 181.59 56.672Z" fill="#1E1E1E"/>
<path d="M276.606 63.2C275.134 65.376 273.662 66.944 272.19 67.904C270.718 68.864 268.766 69.344 266.334 69.344C263.71 69.344 261.534 68.576 259.806 67.04C258.142 65.504 256.894 62.816 256.062 58.976L253.95 49.376C253.182 46.048 252.446 43.488 251.742 41.696C251.102 39.904 250.11 38.464 248.766 37.376C247.422 36.288 245.534 35.744 243.102 35.744H233.982V57.824C233.982 60.256 234.174 62.016 234.558 63.104C234.942 64.192 235.646 64.928 236.67 65.312C237.758 65.696 239.454 65.952 241.758 66.08V68C238.814 67.808 234.75 67.712 229.566 67.712C224.062 67.712 219.966 67.808 217.278 68V66.08C219.582 65.952 221.246 65.696 222.27 65.312C223.358 64.928 224.094 64.192 224.478 63.104C224.862 62.016 225.054 60.256 225.054 57.824V10.208C225.054 7.77599 224.862 6.016 224.478 4.928C224.094 3.84 223.358 3.104 222.27 2.72C221.246 2.33599 219.582 2.07999 217.278 1.952V0.0319977C219.966 0.223995 223.87 0.319994 228.99 0.319994L239.358 0.223995C240.574 0.159996 241.95 0.127996 243.486 0.127996C250.91 0.127996 256.606 1.696 260.574 4.83199C264.606 7.904 266.622 11.904 266.622 16.832C266.622 19.328 266.014 21.856 264.798 24.416C263.646 26.912 261.662 29.184 258.846 31.232C256.094 33.216 252.478 34.56 247.998 35.264L249.15 35.456C253.374 36.16 256.446 37.44 258.366 39.296C260.286 41.152 261.694 44.096 262.59 48.128L264.99 57.92C265.63 60.864 266.302 62.912 267.006 64.064C267.71 65.216 268.67 65.792 269.886 65.792C270.974 65.792 271.87 65.504 272.574 64.928C273.342 64.352 274.206 63.424 275.166 62.144L276.606 63.2ZM241.086 1.952C239.102 1.952 237.598 2.17599 236.574 2.62399C235.614 3.07199 234.942 3.872 234.558 5.024C234.174 6.176 233.982 7.904 233.982 10.208V33.824H240.414C246.75 33.824 251.102 32.416 253.47 29.6C255.838 26.784 257.022 22.88 257.022 17.888C257.022 12.64 255.774 8.672 253.278 5.984C250.782 3.296 246.718 1.952 241.086 1.952Z" fill="#1E1E1E"/>
<path d="M304.968 11.552C302.664 11.68 300.968 11.936 299.88 12.32C298.856 12.704 298.152 13.44 297.768 14.528C297.384 15.616 297.192 17.376 297.192 19.808V57.824C297.192 60.256 297.384 62.016 297.768 63.104C298.152 64.192 298.856 64.928 299.88 65.312C300.968 65.696 302.664 65.952 304.968 66.08V68C302.024 67.808 297.96 67.712 292.776 67.712C287.272 67.712 283.176 67.808 280.488 68V66.08C282.792 65.952 284.456 65.696 285.48 65.312C286.568 64.928 287.304 64.192 287.688 63.104C288.072 62.016 288.264 60.256 288.264 57.824V19.808C288.264 17.376 288.072 15.616 287.688 14.528C287.304 13.44 286.568 12.704 285.48 12.32C284.456 11.936 282.792 11.68 280.488 11.552V9.63199C283.176 9.824 287.272 9.92 292.776 9.92C297.896 9.92 301.96 9.824 304.968 9.63199V11.552Z" fill="#1E1E1E"/>
<path d="M362.94 9.92C365.628 9.92 367.772 9.824 369.372 9.63199V11.552C367.58 12 366.14 12.896 365.052 14.24C363.964 15.52 362.716 17.76 361.308 20.96L340.284 68.48H338.748L316.284 17.696C314.556 13.728 312.348 11.68 309.66 11.552V9.63199C312.284 9.824 315.708 9.92 319.932 9.92C325.436 9.92 329.532 9.824 332.22 9.63199V11.552C329.852 11.68 328.092 12 326.94 12.512C325.852 13.024 325.308 13.888 325.308 15.104C325.308 16.128 325.756 17.632 326.652 19.616L343.164 56.864L357.468 24.992C359.068 21.536 359.868 18.816 359.868 16.832C359.868 15.04 359.228 13.76 357.948 12.992C356.732 12.16 354.844 11.68 352.284 11.552V9.63199C354.204 9.824 357.756 9.92 362.94 9.92Z" fill="#1E1E1E"/>
<path d="M421.328 56.672C421.328 60 421.552 63.776 422 68C417.84 67.808 410.832 67.712 400.976 67.712C389.136 67.712 380.176 67.808 374.096 68V66.08C376.4 65.952 378.064 65.696 379.088 65.312C380.176 64.928 380.912 64.192 381.296 63.104C381.68 62.016 381.872 60.256 381.872 57.824V19.808C381.872 17.376 381.68 15.616 381.296 14.528C380.912 13.44 380.176 12.704 379.088 12.32C378.064 11.936 376.4 11.68 374.096 11.552V9.63199C380.176 9.824 389.136 9.92 400.976 9.92C409.936 9.92 416.304 9.824 420.08 9.63199C419.632 13.472 419.408 16.928 419.408 20C419.408 22.496 419.504 24.48 419.696 25.952H417.488C417.04 20.704 415.92 17.056 414.128 15.008C412.4 12.896 409.552 11.84 405.584 11.84H398.576C396.272 11.84 394.576 12.032 393.488 12.416C392.464 12.736 391.76 13.44 391.376 14.528C390.992 15.616 390.8 17.376 390.8 19.808V37.664H398.768C400.816 37.664 402.384 37.152 403.472 36.128C404.56 35.04 405.296 33.888 405.68 32.672C406.064 31.392 406.416 29.792 406.736 27.872H408.944C408.752 30.048 408.656 32.416 408.656 34.976V38.624C408.656 41.12 408.848 44.704 409.232 49.376H407.024C406.64 46.304 405.904 43.904 404.816 42.176C403.728 40.448 401.712 39.584 398.768 39.584H390.8V57.824C390.8 60.256 390.992 62.016 391.376 63.104C391.76 64.192 392.464 64.928 393.488 65.312C394.576 65.632 396.272 65.792 398.576 65.792H405.584C408.784 65.792 411.312 65.28 413.168 64.256C415.024 63.232 416.432 61.6 417.392 59.36C418.352 57.056 419.024 53.856 419.408 49.76H421.616C421.424 51.488 421.328 53.792 421.328 56.672Z" fill="#1E1E1E"/>
<path d="M488.79 63.968C487.574 65.696 486.166 67.04 484.566 68C483.03 68.896 481.174 69.344 478.998 69.344C473.622 69.344 470.326 66.912 469.11 62.048L466.134 50.048C465.238 46.464 463.894 44.064 462.102 42.848C460.374 41.632 457.782 41.024 454.326 41.024H448.854V57.824C448.854 60.256 449.046 62.016 449.43 63.104C449.814 64.192 450.518 64.928 451.542 65.312C452.63 65.696 454.326 65.952 456.63 66.08V68C453.686 67.808 449.622 67.712 444.438 67.712C438.934 67.712 434.838 67.808 432.15 68V66.08C434.454 65.952 436.118 65.696 437.142 65.312C438.23 64.928 438.966 64.192 439.35 63.104C439.734 62.016 439.926 60.256 439.926 57.824V19.808C439.926 17.376 439.734 15.616 439.35 14.528C438.966 13.44 438.23 12.704 437.142 12.32C436.118 11.936 434.454 11.68 432.15 11.552V9.63199C434.838 9.824 438.742 9.92 443.862 9.92L453.654 9.824C454.742 9.75999 455.99 9.72799 457.398 9.72799C464.566 9.72799 470.038 11.072 473.814 13.76C477.654 16.448 479.574 19.936 479.574 24.224C479.574 27.936 478.07 31.328 475.062 34.4C472.118 37.472 467.254 39.424 460.47 40.256C461.75 40.384 462.838 40.512 463.734 40.64C467.126 41.152 469.814 42.176 471.798 43.712C473.782 45.248 475.19 47.712 476.022 51.104L478.134 59.84C478.646 62.08 479.19 63.68 479.766 64.64C480.406 65.536 481.206 65.984 482.166 65.984C483.766 65.984 485.526 64.896 487.446 62.72L488.79 63.968ZM454.998 11.552C453.27 11.552 451.958 11.776 451.062 12.224C450.23 12.672 449.654 13.472 449.334 14.624C449.014 15.776 448.854 17.504 448.854 19.808V39.104H455.286C460.918 39.104 464.758 37.92 466.806 35.552C468.918 33.12 469.974 29.696 469.974 25.28C469.974 20.672 468.79 17.248 466.422 15.008C464.118 12.704 460.31 11.552 454.998 11.552Z" fill="#1E1E1E"/>
<path d="M547.381 8.28799C553.269 8.28799 558.421 9.47199 562.837 11.84C567.317 14.144 570.773 17.568 573.205 22.112C575.637 26.592 576.853 31.968 576.853 38.24C576.853 44.384 575.573 49.824 573.013 54.56C570.517 59.232 567.029 62.88 562.549 65.504C558.069 68.064 552.981 69.344 547.285 69.344C541.397 69.344 536.213 68.192 531.733 65.888C527.317 63.52 523.893 60.096 521.461 55.616C519.029 51.072 517.813 45.664 517.813 39.392C517.813 33.248 519.061 27.84 521.557 23.168C524.117 18.432 527.637 14.784 532.117 12.224C536.597 9.59999 541.685 8.28799 547.381 8.28799ZM546.997 10.016C543.093 10.016 539.637 11.264 536.629 13.76C533.685 16.192 531.413 19.616 529.813 24.032C528.213 28.384 527.413 33.376 527.413 39.008C527.413 44.704 528.309 49.728 530.101 54.08C531.893 58.432 534.325 61.792 537.397 64.16C540.469 66.464 543.893 67.616 547.669 67.616C551.573 67.616 554.997 66.4 557.941 63.968C560.949 61.472 563.253 58.048 564.853 53.696C566.453 49.28 567.253 44.256 567.253 38.624C567.253 32.928 566.357 27.904 564.565 23.552C562.773 19.2 560.341 15.872 557.269 13.568C554.197 11.2 550.773 10.016 546.997 10.016Z" fill="#1E1E1E"/>
<path d="M632.045 9.63199C631.597 13.472 631.373 16.928 631.373 20C631.373 22.496 631.469 24.48 631.661 25.952H629.453C629.005 20.704 627.885 17.056 626.093 15.008C624.365 12.896 621.517 11.84 617.549 11.84H610.541C608.237 11.84 606.541 12.032 605.453 12.416C604.429 12.736 603.725 13.44 603.341 14.528C602.957 15.616 602.765 17.376 602.765 19.808V37.664H610.733C612.781 37.664 614.349 37.152 615.437 36.128C616.525 35.04 617.261 33.888 617.645 32.672C618.029 31.392 618.381 29.792 618.701 27.872H620.909C620.717 30.048 620.621 32.416 620.621 34.976V38.624C620.621 41.12 620.813 44.704 621.197 49.376H618.989C618.605 46.304 617.869 43.904 616.781 42.176C615.693 40.448 613.677 39.584 610.733 39.584H602.765V57.824C602.765 60.256 603.021 62.016 603.533 63.104C604.045 64.192 604.941 64.928 606.221 65.312C607.501 65.696 609.581 65.952 612.461 66.08V68C609.133 67.808 604.429 67.712 598.349 67.712C592.845 67.712 588.749 67.808 586.061 68V66.08C588.365 65.952 590.029 65.696 591.053 65.312C592.141 64.928 592.877 64.192 593.261 63.104C593.645 62.016 593.837 60.256 593.837 57.824V19.808C593.837 17.376 593.645 15.616 593.261 14.528C592.877 13.44 592.141 12.704 591.053 12.32C590.029 11.936 588.365 11.68 586.061 11.552V9.63199C592.141 9.824 601.101 9.92 612.941 9.92C621.901 9.92 628.269 9.824 632.045 9.63199Z" fill="#1E1E1E"/>
<path d="M270.297 129.44C267.417 129.6 265.297 129.92 263.937 130.4C262.657 130.88 261.777 131.8 261.297 133.16C260.817 134.52 260.577 136.72 260.577 139.76V199.28C260.577 202.32 260.817 204.52 261.297 205.88C261.777 207.24 262.657 208.16 263.937 208.64C265.297 209.12 267.417 209.44 270.297 209.6V212C266.937 211.76 261.817 211.64 254.937 211.64C248.457 211.64 243.377 211.76 239.697 212V209.6C242.577 209.44 244.657 209.12 245.937 208.64C247.297 208.16 248.217 207.24 248.697 205.88C249.177 204.52 249.417 202.32 249.417 199.28V170.48H210.417V199.28C210.417 202.32 210.657 204.52 211.137 205.88C211.617 207.24 212.497 208.16 213.777 208.64C215.137 209.12 217.257 209.44 220.137 209.6V212C216.457 211.76 211.377 211.64 204.897 211.64C198.017 211.64 192.897 211.76 189.537 212V209.6C192.417 209.44 194.497 209.12 195.777 208.64C197.137 208.16 198.057 207.24 198.537 205.88C199.017 204.52 199.257 202.32 199.257 199.28V139.76C199.257 136.72 199.017 134.52 198.537 133.16C198.057 131.8 197.137 130.88 195.777 130.4C194.497 129.92 192.417 129.6 189.537 129.44V127.04C192.897 127.28 198.017 127.4 204.897 127.4C211.297 127.4 216.377 127.28 220.137 127.04V129.44C217.257 129.6 215.137 129.92 213.777 130.4C212.497 130.88 211.617 131.8 211.137 133.16C210.657 134.52 210.417 136.72 210.417 139.76V168.08H249.417V139.76C249.417 136.72 249.177 134.52 248.697 133.16C248.217 131.8 247.297 130.88 245.937 130.4C244.657 129.92 242.577 129.6 239.697 129.44V127.04C243.377 127.28 248.457 127.4 254.937 127.4C261.817 127.4 266.937 127.28 270.297 127.04V129.44Z" fill="#1E1E1E"/>
<path d="M318.548 137.36C325.908 137.36 332.348 138.84 337.868 141.8C343.468 144.68 347.788 148.96 350.828 154.64C353.868 160.24 355.388 166.96 355.388 174.8C355.388 182.48 353.788 189.28 350.588 195.2C347.468 201.04 343.108 205.6 337.508 208.88C331.908 212.08 325.548 213.68 318.428 213.68C311.068 213.68 304.588 212.24 298.988 209.36C293.468 206.4 289.188 202.12 286.148 196.52C283.108 190.84 281.588 184.08 281.588 176.24C281.588 168.56 283.148 161.8 286.268 155.96C289.468 150.04 293.868 145.48 299.468 142.28C305.068 139 311.428 137.36 318.548 137.36ZM318.068 139.52C313.188 139.52 308.868 141.08 305.108 144.2C301.428 147.24 298.588 151.52 296.588 157.04C294.588 162.48 293.588 168.72 293.588 175.76C293.588 182.88 294.708 189.16 296.948 194.6C299.188 200.04 302.228 204.24 306.068 207.2C309.908 210.08 314.188 211.52 318.908 211.52C323.788 211.52 328.068 210 331.748 206.96C335.508 203.84 338.388 199.56 340.388 194.12C342.388 188.6 343.388 182.32 343.388 175.28C343.388 168.16 342.268 161.88 340.028 156.44C337.788 151 334.748 146.84 330.908 143.96C327.068 141 322.788 139.52 318.068 139.52Z" fill="#1E1E1E"/>
<path d="M387.778 182.48V199.28C387.778 202.32 388.018 204.52 388.498 205.88C388.978 207.24 389.858 208.16 391.138 208.64C392.498 209.12 394.618 209.44 397.498 209.6V212C393.818 211.76 388.738 211.64 382.258 211.64C375.378 211.64 370.258 211.76 366.898 212V209.6C369.778 209.44 371.858 209.12 373.138 208.64C374.498 208.16 375.418 207.24 375.898 205.88C376.378 204.52 376.618 202.32 376.618 199.28V151.76C376.618 148.72 376.378 146.52 375.898 145.16C375.418 143.8 374.498 142.88 373.138 142.4C371.858 141.92 369.778 141.6 366.898 141.44V139.04C370.258 139.28 375.138 139.4 381.538 139.4L394.498 139.28C396.018 139.2 397.738 139.16 399.658 139.16C408.218 139.16 414.778 141 419.338 144.68C423.898 148.28 426.178 153.12 426.178 159.2C426.178 163.04 425.218 166.72 423.298 170.24C421.458 173.76 418.258 176.68 413.698 179C409.218 181.32 403.258 182.48 395.818 182.48H387.778ZM396.658 141.44C394.178 141.44 392.298 141.72 391.018 142.28C389.818 142.84 388.978 143.84 388.498 145.28C388.018 146.72 387.778 148.88 387.778 151.76V180.08H394.618C401.978 180.08 407.058 178.32 409.858 174.8C412.738 171.28 414.178 166.52 414.178 160.52C414.178 154.04 412.818 149.24 410.098 146.12C407.378 143 402.898 141.44 396.658 141.44Z" fill="#1E1E1E"/>
<path d="M494.638 197.84C494.638 202 494.918 206.72 495.478 212C490.278 211.76 481.518 211.64 469.198 211.64C454.398 211.64 443.198 211.76 435.598 212V209.6C438.478 209.44 440.558 209.12 441.838 208.64C443.198 208.16 444.118 207.24 444.598 205.88C445.078 204.52 445.318 202.32 445.318 199.28V151.76C445.318 148.72 445.078 146.52 444.598 145.16C444.118 143.8 443.198 142.88 441.838 142.4C440.558 141.92 438.478 141.6 435.598 141.44V139.04C443.198 139.28 454.398 139.4 469.198 139.4C480.398 139.4 488.358 139.28 493.078 139.04C492.518 143.84 492.238 148.16 492.238 152C492.238 155.12 492.358 157.6 492.598 159.44H489.838C489.278 152.88 487.878 148.32 485.638 145.76C483.478 143.12 479.918 141.8 474.958 141.8H466.198C463.318 141.8 461.198 142.04 459.838 142.52C458.558 142.92 457.678 143.8 457.198 145.16C456.718 146.52 456.478 148.72 456.478 151.76V174.08H466.438C468.998 174.08 470.958 173.44 472.318 172.16C473.678 170.8 474.598 169.36 475.078 167.84C475.558 166.24 475.998 164.24 476.398 161.84H479.158C478.918 164.56 478.798 167.52 478.798 170.72V175.28C478.798 178.4 479.038 182.88 479.518 188.72H476.758C476.278 184.88 475.358 181.88 473.998 179.72C472.638 177.56 470.118 176.48 466.438 176.48H456.478V199.28C456.478 202.32 456.718 204.52 457.198 205.88C457.678 207.24 458.558 208.16 459.838 208.64C461.198 209.04 463.318 209.24 466.198 209.24H474.958C478.958 209.24 482.118 208.6 484.438 207.32C486.758 206.04 488.518 204 489.718 201.2C490.918 198.32 491.758 194.32 492.238 189.2H494.998C494.758 191.36 494.638 194.24 494.638 197.84Z" fill="#1E1E1E"/>
<path d="M626.968 150.2C626.968 153.8 625.968 156.84 623.968 159.32C622.048 161.8 619.088 163.88 615.088 165.56L608.728 168.08L602.488 170.48C606.968 171.68 610.208 173.76 612.208 176.72C614.208 179.68 615.208 182.8 615.208 186.08C615.208 191.12 613.728 195.76 610.768 200C607.888 204.16 603.648 207.48 598.048 209.96C592.448 212.44 585.808 213.68 578.128 213.68C571.328 213.68 565.048 212.68 559.288 210.68C553.608 208.6 549.048 205.68 545.608 201.92C542.248 198.08 540.568 193.64 540.568 188.6C540.568 183.56 541.728 179.32 544.048 175.88C546.448 172.44 549.128 169.8 552.088 167.96C555.128 166.12 557.888 164.88 560.368 164.24C556.448 162.96 553.448 161.2 551.368 158.96C549.288 156.72 548.248 154.12 548.248 151.16C548.248 147.24 550.048 143.96 553.648 141.32C557.248 138.68 562.248 137.36 568.648 137.36C573.768 137.36 577.888 138.56 581.008 140.96C582.448 142.16 583.528 143.52 584.248 145.04C585.048 146.48 585.448 147.88 585.448 149.24C585.448 151.16 584.768 152.72 583.408 153.92C582.048 155.04 580.488 155.6 578.728 155.6C576.968 155.6 575.488 155.08 574.288 154.04C573.088 153 572.488 151.52 572.488 149.6C572.488 147.84 573.088 146.32 574.288 145.04C575.488 143.76 577.008 143.08 578.848 143C578.448 141.96 577.408 141.08 575.728 140.36C574.128 139.56 572.208 139.16 569.968 139.16C565.808 139.16 562.408 140.32 559.768 142.64C557.128 144.96 555.808 147.92 555.808 151.52C555.808 154.24 556.248 156.52 557.128 158.36C558.008 160.2 559.608 161.92 561.928 163.52C564.648 163.04 567.128 162.8 569.368 162.8C570.808 162.8 571.968 163.08 572.848 163.64C573.728 164.12 574.168 164.76 574.168 165.56C574.168 167.08 573.048 167.84 570.808 167.84C569.528 167.84 568.208 167.6 566.848 167.12C565.488 166.64 563.888 166 562.048 165.2C553.248 168.16 548.848 174.28 548.848 183.56C548.848 188.04 550.168 191.96 552.808 195.32C555.528 198.6 559.248 201.12 563.968 202.88C568.688 204.64 574.008 205.52 579.928 205.52C586.408 205.52 592.088 204.68 596.968 203C601.928 201.32 605.728 199 608.368 196.04C611.088 193 612.448 189.48 612.448 185.48C612.448 182.68 611.608 179.92 609.928 177.2C608.328 174.48 605.088 172.52 600.208 171.32L587.848 176C584.248 177.36 581.408 178.88 579.328 180.56C577.248 182.16 576.208 184.2 576.208 186.68C576.208 189.16 577.048 191.16 578.728 192.68C580.408 194.12 582.408 194.84 584.728 194.84C586.408 194.84 587.968 194.6 589.408 194.12C590.848 193.64 591.688 193 591.928 192.2C590.328 191.88 588.968 191.24 587.848 190.28C586.808 189.32 586.288 187.92 586.288 186.08C586.288 184.16 586.888 182.64 588.088 181.52C589.368 180.4 590.968 179.84 592.888 179.84C594.808 179.84 596.328 180.44 597.448 181.64C598.648 182.84 599.248 184.4 599.248 186.32C599.248 189.52 597.728 192.04 594.688 193.88C591.728 195.72 588.528 196.64 585.088 196.64C581.568 196.64 578.768 195.68 576.688 193.76C574.688 191.84 573.688 189.08 573.688 185.48C573.688 177.32 579.208 171.28 590.248 167.36L594.568 165.8C603.928 162.68 610.648 160.08 614.728 158C618.088 156.32 620.448 154.68 621.808 153.08C623.168 151.48 623.848 149.72 623.848 147.8C623.848 145.24 622.808 143.16 620.728 141.56C618.728 139.88 616.208 139.04 613.168 139.04C612.368 139.04 611.648 139.16 611.008 139.4C610.448 139.64 610.088 139.92 609.928 140.24C610.968 140.72 611.768 141.52 612.328 142.64C612.968 143.68 613.288 144.72 613.288 145.76C613.288 147.36 612.608 148.76 611.248 149.96C609.968 151.08 608.448 151.64 606.688 151.64C604.848 151.64 603.288 151.12 602.008 150.08C600.808 149.04 600.208 147.64 600.208 145.88C600.208 142.84 601.528 140.68 604.168 139.4C606.888 138.04 610.048 137.36 613.648 137.36C617.488 137.36 620.648 138.52 623.128 140.84C625.688 143.08 626.968 146.2 626.968 150.2Z" fill="#1E1E1E"/>
<path d="M693.07 125.72C696.59 125.72 699.35 126.12 701.35 126.92C703.43 127.64 705.55 128.72 707.71 130.16C709.47 131.28 710.83 131.84 711.79 131.84C712.51 131.84 713.07 131.44 713.47 130.64C713.87 129.76 714.19 128.4 714.43 126.56H717.19C716.79 131.2 716.59 139.36 716.59 151.04H713.83C713.35 144.56 711.47 139.12 708.19 134.72C704.99 130.24 700.31 128 694.15 128C689.83 128 686.31 129.32 683.59 131.96C680.87 134.52 679.51 137.84 679.51 141.92C679.51 144.96 680.19 147.6 681.55 149.84C682.99 152.08 684.79 154 686.95 155.6C689.11 157.2 692.19 159.24 696.19 161.72L699.67 163.88C704.71 167 708.67 169.76 711.55 172.16C714.51 174.48 716.87 177.16 718.63 180.2C720.39 183.24 721.27 186.8 721.27 190.88C721.27 198.16 718.87 203.8 714.07 207.8C709.27 211.72 703.19 213.68 695.83 213.68C691.99 213.68 688.83 213.28 686.35 212.48C683.95 211.68 681.63 210.6 679.39 209.24C677.63 208.12 676.27 207.56 675.31 207.56C674.59 207.56 674.03 208 673.63 208.88C673.23 209.68 672.91 211 672.67 212.84H669.91C670.23 208.44 670.39 198.84 670.39 184.04H673.15C673.71 192.12 675.71 198.68 679.15 203.72C682.59 208.76 687.87 211.28 694.99 211.28C699.31 211.28 702.99 209.96 706.03 207.32C709.07 204.6 710.59 200.6 710.59 195.32C710.59 190.84 709.07 187.04 706.03 183.92C703.07 180.8 698.35 177.28 691.87 173.36C687.15 170.48 683.31 167.92 680.35 165.68C677.47 163.44 675.11 160.76 673.27 157.64C671.43 154.44 670.51 150.72 670.51 146.48C670.51 139.76 672.67 134.64 676.99 131.12C681.31 127.52 686.67 125.72 693.07 125.72Z" fill="#1E1E1E"/>
<path d="M771.675 137.36C779.035 137.36 785.475 138.84 790.995 141.8C796.595 144.68 800.915 148.96 803.955 154.64C806.995 160.24 808.515 166.96 808.515 174.8C808.515 182.48 806.915 189.28 803.715 195.2C800.595 201.04 796.235 205.6 790.635 208.88C785.035 212.08 778.675 213.68 771.555 213.68C764.195 213.68 757.715 212.24 752.115 209.36C746.595 206.4 742.315 202.12 739.275 196.52C736.235 190.84 734.715 184.08 734.715 176.24C734.715 168.56 736.275 161.8 739.395 155.96C742.595 150.04 746.995 145.48 752.595 142.28C758.195 139 764.555 137.36 771.675 137.36ZM771.195 139.52C766.315 139.52 761.995 141.08 758.235 144.2C754.555 147.24 751.715 151.52 749.715 157.04C747.715 162.48 746.715 168.72 746.715 175.76C746.715 182.88 747.835 189.16 750.075 194.6C752.315 200.04 755.355 204.24 759.195 207.2C763.035 210.08 767.315 211.52 772.035 211.52C776.915 211.52 781.195 210 784.875 206.96C788.635 203.84 791.515 199.56 793.515 194.12C795.515 188.6 796.515 182.32 796.515 175.28C796.515 168.16 795.395 161.88 793.155 156.44C790.915 151 787.875 146.84 784.035 143.96C780.195 141 775.915 139.52 771.195 139.52Z" fill="#1E1E1E"/>
<path d="M890.825 206.96C889.305 209.12 887.545 210.8 885.545 212C883.625 213.12 881.305 213.68 878.585 213.68C871.865 213.68 867.745 210.64 866.225 204.56L862.505 189.56C861.385 185.08 859.705 182.08 857.465 180.56C855.305 179.04 852.065 178.28 847.745 178.28H840.905V199.28C840.905 202.32 841.145 204.52 841.625 205.88C842.105 207.24 842.985 208.16 844.265 208.64C845.625 209.12 847.745 209.44 850.625 209.6V212C846.945 211.76 841.865 211.64 835.385 211.64C828.505 211.64 823.385 211.76 820.025 212V209.6C822.905 209.44 824.985 209.12 826.265 208.64C827.625 208.16 828.545 207.24 829.025 205.88C829.505 204.52 829.745 202.32 829.745 199.28V151.76C829.745 148.72 829.505 146.52 829.025 145.16C828.545 143.8 827.625 142.88 826.265 142.4C824.985 141.92 822.905 141.6 820.025 141.44V139.04C823.385 139.28 828.265 139.4 834.665 139.4L846.905 139.28C848.265 139.2 849.825 139.16 851.585 139.16C860.545 139.16 867.385 140.84 872.105 144.2C876.905 147.56 879.305 151.92 879.305 157.28C879.305 161.92 877.425 166.16 873.665 170C869.985 173.84 863.905 176.28 855.425 177.32C857.025 177.48 858.385 177.64 859.505 177.8C863.745 178.44 867.105 179.72 869.585 181.64C872.065 183.56 873.825 186.64 874.865 190.88L877.505 201.8C878.145 204.6 878.825 206.6 879.545 207.8C880.345 208.92 881.345 209.48 882.545 209.48C884.545 209.48 886.745 208.12 889.145 205.4L890.825 206.96ZM848.585 141.44C846.425 141.44 844.785 141.72 843.665 142.28C842.625 142.84 841.905 143.84 841.505 145.28C841.105 146.72 840.905 148.88 840.905 151.76V175.88H848.945C855.985 175.88 860.785 174.4 863.345 171.44C865.985 168.4 867.305 164.12 867.305 158.6C867.305 152.84 865.825 148.56 862.865 145.76C859.985 142.88 855.225 141.44 848.585 141.44Z" fill="#1E1E1E"/>
<path d="M966.907 206.96C965.387 209.12 963.627 210.8 961.627 212C959.707 213.12 957.387 213.68 954.667 213.68C947.947 213.68 943.827 210.64 942.307 204.56L938.587 189.56C937.467 185.08 935.787 182.08 933.547 180.56C931.387 179.04 928.147 178.28 923.827 178.28H916.987V199.28C916.987 202.32 917.227 204.52 917.707 205.88C918.187 207.24 919.067 208.16 920.347 208.64C921.707 209.12 923.827 209.44 926.707 209.6V212C923.027 211.76 917.947 211.64 911.467 211.64C904.587 211.64 899.467 211.76 896.107 212V209.6C898.987 209.44 901.067 209.12 902.347 208.64C903.707 208.16 904.627 207.24 905.107 205.88C905.587 204.52 905.827 202.32 905.827 199.28V151.76C905.827 148.72 905.587 146.52 905.107 145.16C904.627 143.8 903.707 142.88 902.347 142.4C901.067 141.92 898.987 141.6 896.107 141.44V139.04C899.467 139.28 904.347 139.4 910.747 139.4L922.987 139.28C924.347 139.2 925.907 139.16 927.667 139.16C936.627 139.16 943.467 140.84 948.187 144.2C952.987 147.56 955.387 151.92 955.387 157.28C955.387 161.92 953.507 166.16 949.747 170C946.067 173.84 939.987 176.28 931.507 177.32C933.107 177.48 934.467 177.64 935.587 177.8C939.827 178.44 943.187 179.72 945.667 181.64C948.147 183.56 949.907 186.64 950.947 190.88L953.587 201.8C954.227 204.6 954.907 206.6 955.627 207.8C956.427 208.92 957.427 209.48 958.627 209.48C960.627 209.48 962.827 208.12 965.227 205.4L966.907 206.96ZM924.667 141.44C922.507 141.44 920.867 141.72 919.747 142.28C918.707 142.84 917.987 143.84 917.587 145.28C917.187 146.72 916.987 148.88 916.987 151.76V175.88H925.027C932.067 175.88 936.867 174.4 939.427 171.44C942.067 168.4 943.387 164.12 943.387 158.6C943.387 152.84 941.907 148.56 938.947 145.76C936.067 142.88 931.307 141.44 924.667 141.44Z" fill="#1E1E1E"/>
<path d="M1010 137.36C1017.36 137.36 1023.8 138.84 1029.32 141.8C1034.92 144.68 1039.24 148.96 1042.28 154.64C1045.32 160.24 1046.84 166.96 1046.84 174.8C1046.84 182.48 1045.24 189.28 1042.04 195.2C1038.92 201.04 1034.56 205.6 1028.96 208.88C1023.36 212.08 1017 213.68 1009.88 213.68C1002.52 213.68 996.041 212.24 990.441 209.36C984.921 206.4 980.641 202.12 977.601 196.52C974.561 190.84 973.041 184.08 973.041 176.24C973.041 168.56 974.601 161.8 977.721 155.96C980.921 150.04 985.321 145.48 990.921 142.28C996.521 139 1002.88 137.36 1010 137.36ZM1009.52 139.52C1004.64 139.52 1000.32 141.08 996.561 144.2C992.881 147.24 990.041 151.52 988.041 157.04C986.041 162.48 985.041 168.72 985.041 175.76C985.041 182.88 986.161 189.16 988.401 194.6C990.641 200.04 993.681 204.24 997.521 207.2C1001.36 210.08 1005.64 211.52 1010.36 211.52C1015.24 211.52 1019.52 210 1023.2 206.96C1026.96 203.84 1029.84 199.56 1031.84 194.12C1033.84 188.6 1034.84 182.32 1034.84 175.28C1034.84 168.16 1033.72 161.88 1031.48 156.44C1029.24 151 1026.2 146.84 1022.36 143.96C1018.52 141 1014.24 139.52 1009.52 139.52Z" fill="#1E1E1E"/>
<path d="M1147.03 139.4C1152.07 139.4 1155.55 139.28 1157.47 139.04V141.44C1155.31 141.92 1153.47 143.08 1151.95 144.92C1150.43 146.68 1149.03 149.48 1147.75 153.32L1127.11 212.6H1125.19L1106.71 166.88L1087.15 212.6H1085.23L1060.75 149.12C1058.83 144.16 1056.07 141.6 1052.47 141.44V139.04C1055.67 139.28 1059.95 139.4 1065.31 139.4C1072.19 139.4 1077.31 139.28 1080.67 139.04V141.44C1077.63 141.6 1075.47 142 1074.19 142.64C1072.99 143.2 1072.39 144.24 1072.39 145.76C1072.39 146.96 1072.83 148.88 1073.71 151.52L1090.75 197.96L1105.27 163.52L1099.51 149.12C1097.43 144.16 1094.67 141.6 1091.23 141.44V139.04C1094.51 139.28 1098.79 139.4 1104.07 139.4C1110.95 139.4 1116.07 139.28 1119.43 139.04V141.44C1116.39 141.6 1114.23 142 1112.95 142.64C1111.67 143.2 1111.03 144.28 1111.03 145.88C1111.03 147.24 1111.51 149.12 1112.47 151.52L1129.87 197.12L1142.71 159.56C1144.23 155.08 1144.99 151.56 1144.99 149C1144.99 146.36 1144.23 144.48 1142.71 143.36C1141.27 142.24 1139.07 141.6 1136.11 141.44V139.04C1138.51 139.28 1142.15 139.4 1147.03 139.4Z" fill="#1E1E1E"/>
</svg>
