<svg width="31" height="30" viewBox="0 0 31 30" fill="none" xmlns="http://www.w3.org/2000/svg">
<g clip-path="url(#clip0)">
<path opacity="0.99" d="M29.9995 14.995C29.9995 15.1773 29.9962 15.3587 29.9898 15.5394C29.9773 15.8881 29.9531 16.2335 29.9171 16.5758C29.9102 16.642 29.9025 16.7079 29.8941 16.7738C29.8479 17.1718 29.7855 17.5646 29.7067 17.9523C29.5427 18.774 29.3093 19.5804 29.0092 20.3628C28.8749 20.713 28.7281 21.0565 28.5686 21.3935C28.192 22.1904 27.7458 22.9525 27.2351 23.6709C27.0003 24.0012 26.7527 24.3214 26.4923 24.6314C23.742 27.907 19.6166 29.9888 15.0048 29.9888C12.1448 29.9933 9.34367 29.176 6.93489 27.6341C6.59365 27.4159 6.26217 27.1844 5.94046 26.9398C5.41462 26.5398 4.91553 26.1058 4.44639 25.6406C4.18019 25.3764 3.92399 25.1026 3.67779 24.8192C3.43158 24.5358 3.19783 24.2454 2.97654 23.9482C2.86705 23.8012 2.76017 23.6521 2.6559 23.5009C2.59731 23.4162 2.53972 23.3309 2.48313 23.2451C2.32104 22.999 2.16611 22.7487 2.01832 22.494C1.88157 22.2575 1.7511 22.0173 1.62692 21.7732C1.62114 21.7618 1.62273 21.7481 1.63092 21.7384V21.7384C1.6447 21.722 1.63862 21.6969 1.61886 21.6887L1.59332 21.678C1.58178 21.6732 1.57236 21.6643 1.56679 21.6531C1.05243 20.6171 0.660518 19.5247 0.398994 18.3979C0.294114 17.9452 0.209918 17.4849 0.146406 17.0169C0.0561464 16.3468 0.0109866 15.6714 0.0112315 14.9953C0.0112315 14.7492 0.0171522 14.5042 0.0289934 14.2601C0.0488313 13.8486 0.0850472 13.4417 0.137641 13.0394C1.05577 5.99058 6.86968 0.480106 14.0556 0.0310955C14.1826 0.0231618 14.246 0.0191949 14.2968 0.0428145C14.3388 0.0623985 14.375 0.096396 14.3972 0.137158C14.4239 0.186319 14.4239 0.25107 14.4239 0.380571V0.803328C14.4239 0.935387 14.4239 1.00142 14.4125 1.0653C14.4028 1.11968 14.387 1.17279 14.3654 1.22362C14.34 1.28334 14.3039 1.33861 14.2317 1.44917L12.0946 4.72016L11.0976 6.25529L5.73857 14.508C5.64418 14.6533 5.59699 14.726 5.59833 14.7936C5.59945 14.8495 5.62281 14.9046 5.66219 14.9442C5.7098 14.9922 5.79355 15.0085 5.96105 15.0413C7.22081 15.2874 8.49959 15.4257 9.78348 15.4543C9.95695 15.4582 10.1309 15.4602 10.3053 15.4603C11.8451 15.4611 13.3809 15.3046 14.8889 14.9932C14.8895 14.9931 14.8901 14.9936 14.8901 14.9942V14.9942C14.8901 14.9949 14.8907 14.9954 14.8914 14.9952C16.4902 14.6618 18.1191 14.4942 19.7523 14.4952C19.8599 14.4952 19.9671 14.4959 20.0738 14.4972C21.3835 14.5143 22.6894 14.6396 23.9784 14.8719C24.1763 14.9074 24.3733 14.9458 24.5692 14.9872C24.7313 15.0204 24.8927 15.0556 25.0536 15.0926C25.1652 15.118 25.2762 15.1443 25.3872 15.1715C25.6543 15.2369 25.9195 15.3067 26.183 15.381V15.381C26.1886 15.3825 26.1924 15.3875 26.1924 15.3933C26.1924 15.4376 26.1924 15.482 26.1924 15.5265C26.1924 15.8745 26.1771 16.2186 26.1463 16.5588C26.1329 16.7059 26.1165 16.8517 26.0974 16.9971C26.011 17.6566 25.8655 18.307 25.6626 18.9405C25.634 19.0307 25.6041 19.1204 25.5728 19.2094C25.5498 19.2756 25.5262 19.3414 25.5019 19.4071C25.4076 19.6622 25.3605 19.7897 25.2671 19.8939C25.1614 20.0117 25.007 20.0979 24.8513 20.126C24.7136 20.1508 24.5581 20.1195 24.2472 20.0569V20.0569C24.1684 20.0408 24.0896 20.0254 24.0107 20.0108C23.5523 19.9236 23.0893 19.8505 22.6216 19.7914C20.0974 19.4742 17.5379 19.5825 15.0495 20.1117C15.0487 20.1119 15.0479 20.1113 15.0479 20.1104V20.1104C15.0479 20.1096 15.0471 20.109 15.0463 20.1092C13.4948 20.4222 11.9158 20.5792 10.3329 20.578C10.2421 20.578 10.1514 20.5775 10.061 20.5764C8.74931 20.5622 7.44108 20.4393 6.14968 20.2092L6.13696 20.2069C6.12109 20.204 6.10903 20.2204 6.1167 20.2346V20.2346C6.63722 21.2143 7.31574 22.1015 8.12494 22.8605C8.22843 22.9578 8.33401 23.0527 8.44168 23.1455C8.53635 23.227 8.58368 23.2678 8.64801 23.3038C8.69829 23.332 8.7661 23.3593 8.82188 23.3738C8.89324 23.3923 8.9594 23.3959 9.09171 23.4031C9.50281 23.4253 9.91679 23.4365 10.3336 23.4368C11.9096 23.4377 13.4814 23.2737 15.0233 22.9476C15.024 22.9474 15.0246 22.9479 15.0246 22.9487V22.9487C15.0246 22.9494 15.0253 22.9499 15.026 22.9498C16.5907 22.631 18.1835 22.4708 19.7804 22.4716C19.8881 22.4716 19.9957 22.4723 20.1033 22.4737C20.7983 22.4829 21.4857 22.5218 22.1656 22.5904C22.4751 22.6212 22.7827 22.6581 23.0883 22.7011V22.7011C23.284 22.7284 23.3692 22.9599 23.2352 23.1052C23.0183 23.3406 22.7914 23.5666 22.5552 23.7828C20.9303 25.267 18.9042 26.2395 16.7298 26.5789C14.7655 26.8855 12.759 26.6631 10.9151 25.9402C10.751 25.8758 10.6689 25.8436 10.6577 25.8122C10.6486 25.7866 10.6547 25.7573 10.6732 25.7375C10.696 25.7131 10.7857 25.7163 10.9651 25.7227C11.2388 25.7324 11.5137 25.7373 11.7899 25.7373C12.6748 25.7375 13.559 25.6861 14.4379 25.5832C14.4766 25.5787 14.4959 25.5764 14.513 25.5752C14.529 25.5741 14.5409 25.5736 14.5569 25.5735C14.5741 25.5733 14.5948 25.5741 14.6362 25.5756C14.7593 25.5802 14.8831 25.5825 15.0075 25.5825C16.8879 25.5854 18.731 25.0588 20.3259 24.0628C20.35 24.0478 20.374 24.0327 20.3979 24.0175C20.5606 23.9138 20.642 23.862 20.6554 23.8034C20.6661 23.7568 20.651 23.7028 20.6177 23.6685C20.5758 23.6253 20.478 23.6231 20.2824 23.6189C20.1157 23.6153 19.9485 23.6135 19.7809 23.6135C18.1828 23.6125 16.5892 23.7811 15.0268 24.1164C15.0259 24.1166 15.0251 24.1159 15.0251 24.115V24.115C15.0251 24.1142 15.0243 24.1135 15.0234 24.1137C13.5724 24.4051 12.0973 24.5602 10.6174 24.577C10.5232 24.5782 10.4288 24.5787 10.3341 24.5786C10.2264 24.5786 10.1188 24.5779 10.0112 24.5765C9.55498 24.5704 9.10204 24.5515 8.65236 24.5198C8.53061 24.5113 8.46974 24.507 8.40443 24.49C8.35297 24.4767 8.2914 24.4527 8.24444 24.4278C8.18486 24.3962 8.13934 24.36 8.04828 24.2875C7.73396 24.0376 7.43321 23.7709 7.14734 23.4887C7.04062 23.3835 6.93605 23.2758 6.83363 23.1657C6.67739 22.9992 6.52653 22.8278 6.38105 22.6515C5.69362 21.8215 5.13001 20.8963 4.70774 19.9047C4.70659 19.9022 4.70544 19.8996 4.70451 19.8971C4.5758 19.5941 4.46046 19.2846 4.3585 18.9684V18.9684C4.30963 18.8181 4.44898 18.6772 4.60179 18.7174C4.61534 18.7209 4.6289 18.7245 4.64246 18.728C4.94095 18.8061 5.24175 18.8783 5.54486 18.9444C5.64681 18.9675 5.74923 18.9882 5.85165 19.0088C6.38605 19.1175 6.92697 19.2069 7.47444 19.277C8.43013 19.3988 9.3926 19.4597 10.356 19.4593C11.8193 19.4598 13.2791 19.3183 14.7151 19.0368C14.7155 19.0367 14.716 19.0367 14.7164 19.0367V19.0367C14.7169 19.0367 14.7174 19.0366 14.7178 19.0365C14.814 19.0177 14.91 18.9982 15.0057 18.9781C15.0652 18.9655 15.1245 18.953 15.1837 18.94C15.1851 18.9397 15.1866 18.9396 15.188 18.9396V18.9396C15.1893 18.9396 15.1906 18.9394 15.1919 18.9392C16.7034 18.6426 18.2401 18.4937 19.7804 18.4946C19.8713 18.4946 19.9619 18.4951 20.0524 18.4962H20.0549C21.3586 18.5104 22.6589 18.6318 23.9427 18.8593C24.0164 18.8723 24.09 18.8857 24.1635 18.8995C24.2724 18.9198 24.3268 18.93 24.3743 18.9177C24.4139 18.9075 24.451 18.8855 24.4791 18.8557C24.5128 18.8201 24.5293 18.7699 24.5623 18.6696C24.6055 18.538 24.6461 18.4053 24.6841 18.2713C24.8425 17.7112 24.9518 17.1386 25.0108 16.5599C25.0214 16.4563 25.0267 16.4045 25.0101 16.3579C24.9966 16.3198 24.9703 16.2832 24.9385 16.2583C24.8996 16.2278 24.8479 16.2161 24.7446 16.1926C24.5686 16.1528 24.3918 16.115 24.2142 16.0794C23.6938 15.9747 23.1672 15.8882 22.6343 15.8199C20.0923 15.4958 17.5138 15.6035 15.0076 16.1384C15.0068 16.1385 15.0059 16.1379 15.0059 16.137V16.137C15.0059 16.1361 15.0051 16.1354 15.0042 16.1356C13.4573 16.4467 11.8832 16.603 10.3053 16.6021C10.1976 16.6021 10.0904 16.6015 9.9837 16.6001C9.26093 16.5904 8.54707 16.5488 7.84213 16.4753C6.87281 16.3752 5.91063 16.2152 4.96113 15.996C4.95967 15.9957 4.95852 15.9945 4.95847 15.993V15.993C4.9584 15.9909 4.95703 15.989 4.95498 15.9887C4.90629 15.9811 4.85885 15.967 4.81389 15.9468C4.80923 15.9447 4.80371 15.9463 4.80095 15.9506V15.9506C4.79859 15.9543 4.79418 15.956 4.78996 15.955L4.78271 15.9533C4.51626 15.89 4.25163 15.8219 3.98882 15.749C3.88785 15.7209 3.8173 15.6297 3.81757 15.5249V15.5249V15.5249C3.81757 15.3961 3.85659 15.2708 3.92684 15.1628L4.26623 14.641L5.2286 13.1591L8.86355 7.56113L10.2783 5.38288L12.7799 1.53061C12.8255 1.46033 12.8484 1.42518 12.8449 1.39838C12.842 1.3763 12.8288 1.35631 12.8097 1.34491C12.7865 1.33107 12.7454 1.33808 12.6631 1.3521C6.59695 2.38635 1.87661 7.36782 1.23888 13.5591C1.19751 13.9589 1.17359 14.3631 1.16714 14.7715C1.16591 14.8456 1.16529 14.9198 1.16529 14.9941C1.16483 15.8726 1.24763 16.7492 1.41257 17.612C1.62402 18.7177 1.97039 19.7932 2.44391 20.8145C2.56863 21.0834 2.70173 21.3476 2.84321 21.6071C2.971 21.8419 3.10556 22.0726 3.24689 22.2991C3.31378 22.4067 3.38229 22.5135 3.45242 22.6195C3.72546 23.0324 4.02038 23.4304 4.3359 23.8118C4.40371 23.8938 4.4723 23.9748 4.54166 24.0547C4.75111 24.2962 4.96856 24.5302 5.194 24.7569C5.23322 24.7966 5.27266 24.8358 5.3128 24.8748C5.82197 25.3746 6.36898 25.8344 6.94897 26.2501C7.28898 26.4941 7.64006 26.7226 8.00222 26.9356C10.1248 28.1833 12.5429 28.8393 15.005 28.8354C19.0729 28.8354 22.7309 27.0805 25.2631 24.2861C25.5449 23.9753 25.8124 23.6524 26.0653 23.3173C26.6181 22.5844 27.0963 21.7982 27.493 20.9704C27.6544 20.6341 27.8023 20.2905 27.9366 19.9395C28.1299 19.434 28.2932 18.9175 28.4256 18.3926C28.5034 18.0841 28.5708 17.7717 28.6277 17.4554C28.6965 17.0697 28.7494 16.6789 28.7861 16.2829C28.805 16.0804 28.8193 15.8766 28.829 15.6716C28.8393 15.4591 28.8448 15.2453 28.8454 15.0303V14.9962C28.8454 14.5964 28.8287 14.2013 28.7954 13.811C28.745 13.2153 28.656 12.6236 28.5289 12.0394C28.431 11.5891 28.3114 11.1474 28.1702 10.7142C27.9958 10.1774 27.7885 9.65188 27.5495 9.14055C27.3777 8.77301 27.1904 8.4147 26.9876 8.06561C24.962 4.57079 21.4511 2.04374 17.3185 1.34795C17.2367 1.33417 17.1957 1.32728 17.1726 1.34114C17.1535 1.35255 17.1403 1.37254 17.1375 1.3946C17.134 1.42138 17.1567 1.45644 17.2023 1.52657L19.6962 5.36674L21.0964 7.52307L23.4859 11.2007L24.1088 12.1594L24.7978 13.2205L25.0453 13.6016C25.106 13.695 25.0217 13.815 24.9131 13.7905V13.7905C24.6597 13.7345 24.4046 13.6827 24.1481 13.635C23.9487 13.598 23.849 13.5795 23.7661 13.5413C23.6938 13.5081 23.6324 13.4671 23.574 13.4129C23.5072 13.3509 23.4544 13.2696 23.3488 13.107L23.1554 12.8092L22.5326 11.8514L18.8928 6.24606L17.899 4.71601L15.5948 1.1671V1.1671C15.5896 1.15896 15.5868 1.14948 15.5868 1.1398V0.404869C15.5868 0.266757 15.5868 0.197701 15.6153 0.145223C15.639 0.101755 15.6777 0.0654216 15.7226 0.044581C15.7768 0.0194206 15.8442 0.023738 15.979 0.032373C20.9727 0.352263 25.3012 3.11614 27.7809 7.14177C27.9945 7.48855 28.194 7.84417 28.3794 8.20863C28.6067 8.65545 28.8111 9.11346 28.9921 9.58091C29.157 10.0067 29.3031 10.4418 29.4304 10.8861C29.5628 11.3516 29.6728 11.8258 29.7605 12.3089C29.8682 12.9048 29.9397 13.5067 29.9748 14.1113C29.9912 14.4038 29.9995 14.6984 29.9995 14.995Z" fill="#67606C" stroke="#67606C" stroke-width="0.0230673" stroke-miterlimit="10"/>
</g>
<defs>
<clipPath id="clip0">
<rect width="30.0106" height="30" fill="white"/>
</clipPath>
</defs>
</svg>
