<svg width="30" height="30" viewBox="0 0 30 30" fill="none" xmlns="http://www.w3.org/2000/svg">
<path d="M7.32329 13.8204C7.55095 13.8204 7.7352 14.0046 7.7352 14.2323C7.7352 14.46 7.55095 14.6442 7.32329 14.6442C5.3001 14.6442 3.46938 13.8251 2.14523 12.5009C0.819914 11.1756 0 9.34491 0 7.32329C0 5.30128 0.819914 3.47055 2.14523 2.14523C3.47055 0.819914 5.30128 0 7.32329 0C9.34491 0 11.1756 0.819914 12.5009 2.14523C13.8251 3.46938 14.6442 5.3001 14.6442 7.32329C14.6442 7.55095 14.4596 7.7352 14.2323 7.7352C14.0046 7.7352 13.8204 7.55095 13.8204 7.32329C13.8204 5.53051 13.0928 3.90672 11.9161 2.73005C10.7406 1.55494 9.11646 0.827738 7.3229 0.827738C5.52894 0.827738 3.90515 1.55494 2.72966 2.73005C1.55455 3.90554 0.827346 5.52973 0.827346 7.32329C0.827346 9.11685 1.55455 10.7406 2.72966 11.9165C3.90633 13.0928 5.53012 13.8208 7.3229 13.8208L7.32329 13.8204Z" fill="#67606C"/>
<path d="M7.32327 7.67692C7.55133 7.67692 7.73675 7.86234 7.73675 8.0904C7.73675 8.31885 7.55133 8.50427 7.32327 8.50427C6.99703 8.50427 6.7013 8.37166 6.48771 8.15808C6.47871 8.14908 6.4705 8.13969 6.46228 8.12991C6.26396 7.91867 6.14191 7.63468 6.14191 7.3229C6.14191 6.99783 6.27413 6.70288 6.48771 6.4893L6.48967 6.48734C6.70325 6.27376 6.9982 6.14154 7.32327 6.14154C7.64834 6.14154 7.9429 6.27376 8.15649 6.48734L8.15766 6.48852L8.15844 6.48734C8.37203 6.70093 8.50464 6.99666 8.50464 7.3229C8.50464 7.55096 8.31922 7.73638 8.09077 7.73638C7.86271 7.73638 7.67729 7.55096 7.67729 7.3229C7.67729 7.22511 7.63778 7.13631 7.57363 7.07255L7.5748 7.07177C7.51065 7.008 7.42224 6.9685 7.32366 6.9685C7.22509 6.9685 7.13629 7.008 7.07253 7.07177C7.00876 7.13553 6.96925 7.22433 6.96925 7.3229C6.96925 7.41405 7.00289 7.49698 7.05844 7.55918L7.07292 7.57287C7.13668 7.63702 7.22548 7.67653 7.32327 7.67653V7.67692Z" fill="#67606C"/>
<path d="M21.4953 7.32329C21.4953 7.09484 21.6808 6.90942 21.9092 6.90942C22.1373 6.90942 22.3227 7.09484 22.3227 7.32329C22.3227 9.3453 21.5032 11.1756 20.1778 12.501C18.8537 13.8251 17.023 14.6442 14.9998 14.6442V14.6462C14.8652 14.6462 14.7209 14.6411 14.5683 14.6325C14.4193 14.6235 14.2753 14.611 14.1372 14.5949C13.9107 14.5691 13.748 14.3641 13.7738 14.1377C13.7996 13.9112 14.0046 13.7484 14.2311 13.7742C14.3629 13.7899 14.492 13.8016 14.6168 13.8087C14.7334 13.8157 14.8609 13.8192 14.9998 13.8192V13.8208C16.7922 13.8208 18.4164 13.0932 19.593 11.9169C20.7681 10.7418 21.4953 9.11725 21.4953 7.32368V7.32329ZM8.54922 8.09235C8.57504 8.31924 8.41231 8.52343 8.18582 8.54925C7.95932 8.57507 7.75474 8.41234 7.72892 8.18584C7.71249 8.04776 7.69997 7.9042 7.69097 7.75476C7.68198 7.6022 7.67767 7.45786 7.67767 7.32368C7.67767 7.09523 7.86309 6.90981 8.09115 6.90981C8.3196 6.90981 8.50502 7.09523 8.50502 7.32368C8.50502 7.46216 8.50854 7.58969 8.51519 7.70626C8.52262 7.83183 8.53436 7.96013 8.54961 8.09235H8.54922Z" fill="#67606C"/>
<path d="M15.3538 7.32329C15.3538 7.09484 15.5392 6.90942 15.7677 6.90942C15.9957 6.90942 16.1811 7.09484 16.1811 7.32329C16.1811 7.64915 16.0489 7.94488 15.835 8.15846C15.6214 8.37205 15.326 8.50466 14.9998 8.50466C14.6739 8.50466 14.3782 8.37205 14.1646 8.15846C14.1552 8.14947 14.147 8.14008 14.1392 8.1303C13.9405 7.91906 13.8184 7.63506 13.8184 7.32329C13.8184 7.09484 14.0038 6.90942 14.2319 6.90942C14.4603 6.90942 14.6458 7.09484 14.6458 7.32329C14.6458 7.41444 14.6794 7.49737 14.7346 7.55957L14.749 7.57326C14.8132 7.63741 14.9016 7.67692 14.9994 7.67692C15.0972 7.67692 15.1856 7.63741 15.2497 7.57326C15.3135 7.50949 15.353 7.42109 15.353 7.32329H15.3538Z" fill="#67606C"/>
<path d="M7.32329 8.50423C7.09484 8.50423 6.90942 8.31881 6.90942 8.09036C6.90942 7.8623 7.09484 7.67688 7.32329 7.67688C9.3453 7.67688 11.1756 8.4964 12.501 9.82172C13.8251 11.1459 14.6442 12.9766 14.6442 14.9998H14.6462C14.6462 15.1343 14.6411 15.2787 14.6325 15.4312C14.6235 15.5803 14.611 15.7242 14.5949 15.8623C14.5691 16.0888 14.3641 16.2516 14.1377 16.2257C13.9112 16.1999 13.7484 15.9949 13.7742 15.7684C13.7899 15.6366 13.8016 15.5075 13.8087 15.3827C13.8157 15.2662 13.8192 15.1386 13.8192 14.9998H13.8208C13.8208 13.207 13.0932 11.5832 11.9169 10.4065C10.7418 9.23143 9.11725 8.50423 7.32368 8.50423H7.32329ZM8.09235 21.4503C8.31924 21.4245 8.52343 21.5873 8.54925 21.8137C8.57507 22.0402 8.41234 22.2448 8.18584 22.2706C8.04776 22.2871 7.9042 22.2996 7.75476 22.3086C7.6022 22.3176 7.45786 22.3219 7.32368 22.3219C7.09523 22.3219 6.90981 22.1365 6.90981 21.9084C6.90981 21.68 7.09523 21.4945 7.32368 21.4945C7.46216 21.4945 7.58969 21.491 7.70626 21.4844C7.83183 21.4769 7.96013 21.4652 8.09235 21.4499V21.4503Z" fill="#67606C"/>
<path d="M7.32329 14.6458C7.09484 14.6458 6.90942 14.4603 6.90942 14.2319C6.90942 14.0038 7.09484 13.8184 7.32329 13.8184C7.64836 13.8184 7.94292 13.9506 8.15651 14.1646L8.15768 14.1654L8.15846 14.1646C8.37205 14.3782 8.50466 14.6739 8.50466 14.9998C8.50466 15.326 8.37205 15.6214 8.15846 15.835C7.94488 16.0489 7.64915 16.1811 7.32329 16.1811C7.09484 16.1811 6.90942 15.9957 6.90942 15.7677C6.90942 15.5392 7.09484 15.3538 7.32329 15.3538C7.42109 15.3538 7.50949 15.3143 7.57326 15.2505C7.63741 15.1864 7.67692 15.098 7.67692 15.0002C7.67692 14.9024 7.63741 14.814 7.57326 14.7498L7.57404 14.749C7.51028 14.6857 7.42187 14.6462 7.32329 14.6462V14.6458Z" fill="#67606C"/>
<path d="M16.1792 7.32329C16.1792 7.55095 15.995 7.7352 15.7673 7.7352C15.5397 7.7352 15.3554 7.55095 15.3554 7.32329C15.3554 5.3001 16.1745 3.46938 17.4987 2.14523C18.824 0.819914 20.6547 0 22.6763 0C24.6984 0 26.5291 0.819914 27.8544 2.14523C29.1797 3.47055 29.9996 5.30128 29.9996 7.32329C29.9996 9.34491 29.1797 11.1756 27.8544 12.5009C26.5303 13.8251 24.6995 14.6442 22.6763 14.6442C22.4487 14.6442 22.2644 14.4596 22.2644 14.2323C22.2644 14.0046 22.4487 13.8204 22.6763 13.8204C24.4691 13.8204 26.0929 13.0928 27.2696 11.9161C28.4447 10.7406 29.1719 9.11646 29.1719 7.3229C29.1719 5.52894 28.4447 3.90515 27.2696 2.72966C26.0941 1.55455 24.4699 0.827346 22.6763 0.827346C20.8828 0.827346 19.259 1.55455 18.0831 2.72966C16.9068 3.90633 16.1788 5.53012 16.1788 7.3229L16.1792 7.32329Z" fill="#67606C"/>
<path d="M22.3227 7.32333C22.3227 7.55139 22.1373 7.73681 21.9092 7.73681C21.6808 7.73681 21.4954 7.55139 21.4954 7.32333C21.4954 6.99826 21.628 6.70331 21.8416 6.48973L21.8435 6.48777C22.0571 6.27419 22.352 6.14197 22.6767 6.14197C23.0018 6.14197 23.2967 6.27419 23.5103 6.48777L23.5111 6.48895L23.5123 6.48777C23.7259 6.70136 23.8581 6.99709 23.8581 7.32333C23.8581 7.64919 23.7259 7.94492 23.5123 8.1585C23.2987 8.37209 23.003 8.5047 22.6767 8.5047C22.4487 8.5047 22.2632 8.31928 22.2632 8.09083C22.2632 7.86277 22.4487 7.67735 22.6767 7.67735C22.7749 7.67735 22.8633 7.63784 22.9271 7.57369C22.9912 7.50993 23.0307 7.42152 23.0307 7.32372C23.0307 7.22593 22.9912 7.13713 22.9271 7.07337L22.9279 7.07259C22.8641 7.00882 22.7753 6.96931 22.6767 6.96931C22.5781 6.96931 22.4897 7.00882 22.4256 7.07259C22.3622 7.13635 22.3227 7.22515 22.3227 7.32372V7.32333Z" fill="#67606C"/>
<path d="M22.6764 7.67688C22.9048 7.67688 23.0902 7.8623 23.0902 8.09036C23.0902 8.31881 22.9048 8.50423 22.6764 8.50423C22.5379 8.50423 22.4103 8.50775 22.2938 8.5144C22.1682 8.52183 22.0399 8.53356 21.9077 8.54882C21.6808 8.57464 21.4766 8.41191 21.4508 8.18541C21.425 7.95892 21.5877 7.75433 21.8142 7.72852C21.9523 7.71209 22.0958 7.69957 22.2453 7.69057C22.3978 7.68157 22.5422 7.67727 22.6764 7.67727V7.67688ZM15.4051 14.1368C15.4309 13.9103 15.6359 13.7476 15.8624 13.7734C16.0889 13.7992 16.2516 14.0042 16.2258 14.2307C16.2101 14.3625 16.1984 14.4916 16.1914 14.6164C16.1843 14.733 16.1808 14.8605 16.1808 14.9994C16.1808 16.7933 16.908 18.4171 18.0831 19.5926C19.2594 20.7689 20.8836 21.4969 22.6764 21.4969V21.4949C22.9048 21.4949 23.0902 21.6804 23.0902 21.9088C23.0902 22.1369 22.9048 22.3223 22.6764 22.3223V22.3207C20.6536 22.3203 18.8228 21.5016 17.4987 20.1774C16.1734 18.8521 15.3535 17.0214 15.3535 14.9994C15.3535 14.8648 15.3585 14.7205 15.3671 14.5679C15.3761 14.4189 15.3887 14.2749 15.4047 14.1368H15.4051Z" fill="#67606C"/>
<path d="M22.6764 13.8184C22.9048 13.8184 23.0902 14.0038 23.0902 14.2319C23.0902 14.4603 22.9048 14.6457 22.6764 14.6457C22.5778 14.6457 22.4894 14.6852 22.4256 14.7486L22.4264 14.7494C22.3611 14.8147 22.3212 14.9031 22.3212 14.9997C22.3212 15.0964 22.3611 15.1852 22.4264 15.2501C22.4902 15.3139 22.5786 15.3534 22.6764 15.3534C22.9048 15.3534 23.0902 15.5388 23.0902 15.7672C23.0902 15.9953 22.9048 16.1807 22.6764 16.1807C22.3505 16.1807 22.0548 16.0485 21.8412 15.8345C21.6288 15.6221 21.4969 15.3264 21.4969 14.9994C21.4969 14.6723 21.6288 14.377 21.8412 14.1642L21.842 14.165L21.8431 14.1642C22.0567 13.9502 22.3517 13.818 22.6764 13.818V13.8184Z" fill="#67606C"/>
<path d="M22.6763 16.1792C22.4487 16.1792 22.2644 15.995 22.2644 15.7673C22.2644 15.5397 22.4487 15.3554 22.6763 15.3554C24.6995 15.3554 26.5303 16.1745 27.8544 17.4987C29.1797 18.824 29.9996 20.6547 29.9996 22.6763C29.9996 24.6984 29.1797 26.5291 27.8544 27.8544C26.5291 29.1797 24.6984 29.9996 22.6763 29.9996C20.6547 29.9996 18.824 29.1797 17.4987 27.8544C16.1745 26.5303 15.3554 24.6995 15.3554 22.6763C15.3554 22.4487 15.54 22.2644 15.7673 22.2644C15.995 22.2644 16.1792 22.4487 16.1792 22.6763C16.1792 24.4691 16.9068 26.0929 18.0835 27.2696C19.259 28.4447 20.8832 29.1719 22.6767 29.1719C24.4707 29.1719 26.0945 28.4447 27.27 27.2696C28.4451 26.0941 29.1723 24.4699 29.1723 22.6763C29.1723 20.8828 28.4451 19.259 27.27 18.0831C26.0933 16.9068 24.4695 16.1788 22.6767 16.1788L22.6763 16.1792Z" fill="#67606C"/>
<path d="M22.6764 22.3227C22.4483 22.3227 22.2629 22.1373 22.2629 21.9092C22.2629 21.6808 22.4483 21.4954 22.6764 21.4954C23.0014 21.4954 23.2964 21.628 23.51 21.8416L23.5107 21.8423L23.5119 21.8416C23.7255 22.0551 23.8577 22.3509 23.8577 22.6767C23.8577 23.003 23.7255 23.2987 23.5119 23.5123C23.2983 23.7259 23.0026 23.8581 22.6764 23.8581C22.3505 23.8581 22.0548 23.7259 21.8412 23.5123C21.8322 23.5029 21.824 23.4939 21.8158 23.4841C21.617 23.2729 21.495 22.9889 21.495 22.6767C21.495 22.4487 21.6804 22.2632 21.9089 22.2632C22.1369 22.2632 22.3223 22.4487 22.3223 22.6767C22.3223 22.7683 22.356 22.8512 22.4115 22.9134L22.426 22.9271C22.4898 22.9912 22.5782 23.0307 22.676 23.0307C22.7742 23.0307 22.8626 22.9912 22.9263 22.9271C22.9905 22.8633 23.03 22.7749 23.03 22.6767C23.03 22.5789 22.9905 22.4905 22.9263 22.4268L22.9271 22.4256C22.8633 22.3622 22.7745 22.3227 22.676 22.3227H22.6764Z" fill="#67606C"/>
<path d="M22.3227 22.6762C22.3227 22.9047 22.1373 23.0901 21.9092 23.0901C21.6808 23.0901 21.4954 22.9047 21.4954 22.6762C21.4954 22.5378 21.4918 22.4102 21.4852 22.2937C21.4778 22.1681 21.466 22.0398 21.4508 21.9076C21.4249 21.6807 21.5877 21.4765 21.8142 21.4507C22.0407 21.4248 22.2453 21.5876 22.2711 21.8141C22.2875 21.9522 22.3 22.0957 22.309 22.2451C22.318 22.3977 22.3223 22.5421 22.3223 22.6762H22.3227ZM15.8628 15.405C16.0892 15.4308 16.252 15.6358 16.2262 15.8623C16.2003 16.0888 15.9954 16.2515 15.7689 16.2257C15.637 16.21 15.508 16.1983 15.3832 16.1912C15.2666 16.1842 15.1391 16.1807 15.0002 16.1807C13.2062 16.1807 11.5825 16.9079 10.407 18.083C9.23068 19.2593 8.5027 20.8834 8.5027 22.6762H8.50465C8.50465 22.9047 8.31923 23.0901 8.09079 23.0901C7.86273 23.0901 7.67731 22.9047 7.67731 22.6762H7.67887C7.67926 20.6534 8.498 18.8227 9.82215 17.4986C11.1475 16.1732 12.9782 15.3533 15.0002 15.3533C15.1348 15.3533 15.2791 15.3584 15.4317 15.367C15.5807 15.376 15.7247 15.3885 15.8628 15.4046V15.405Z" fill="#67606C"/>
<path d="M16.1812 22.6763C16.1812 22.9047 15.9957 23.0902 15.7677 23.0902C15.5392 23.0902 15.3538 22.9047 15.3538 22.6763C15.3538 22.5785 15.3143 22.4901 15.2505 22.4263C15.1852 22.361 15.0968 22.3211 15.0002 22.3211C14.9036 22.3211 14.8148 22.361 14.7498 22.4263L14.7354 22.44C14.6802 22.5022 14.6466 22.5852 14.6466 22.6763C14.6466 22.9047 14.4611 23.0902 14.2327 23.0902C14.0046 23.0902 13.8192 22.9047 13.8192 22.6763C13.8192 22.3645 13.9413 22.0801 14.14 21.8693C14.1478 21.8599 14.1564 21.8501 14.1654 21.8411C14.3778 21.6287 14.6736 21.4969 15.0006 21.4969C15.3276 21.4969 15.6229 21.6287 15.8357 21.8411C16.0497 22.0547 16.1819 22.3504 16.1819 22.6763H16.1812Z" fill="#67606C"/>
<path d="M7.32326 15.3554C7.55093 15.3554 7.73517 15.54 7.73517 15.7673C7.73517 15.995 7.55093 16.1792 7.32326 16.1792C5.53048 16.1792 3.90669 16.9068 2.73002 18.0835C1.55492 19.259 0.827713 20.8832 0.827713 22.6767C0.827713 24.4707 1.55492 26.0945 2.73002 27.27C3.90552 28.4451 5.5297 29.1723 7.32326 29.1723C9.11682 29.1723 10.7406 28.4451 11.9165 27.27C13.0928 26.0933 13.8208 24.4695 13.8208 22.6767C13.8208 22.4491 14.005 22.2648 14.2327 22.2648C14.4603 22.2648 14.6446 22.4491 14.6446 22.6767C14.6446 24.6999 13.8255 26.5306 12.5013 27.8548C11.176 29.1801 9.34527 30 7.32365 30C5.30164 30 3.47092 29.1801 2.1456 27.8548C0.82028 26.5295 0.000366211 24.6987 0.000366211 22.6767C0.000366211 20.6551 0.82028 18.8244 2.1456 17.4991C3.46974 16.1749 5.30047 15.3558 7.32365 15.3558L7.32326 15.3554Z" fill="#67606C"/>
<path d="M7.3233 21.4954C7.55135 21.4954 7.73677 21.6808 7.73677 21.9092C7.73677 22.1373 7.55135 22.3227 7.3233 22.3227C7.22472 22.3227 7.13592 22.3622 7.07216 22.4256C7.0084 22.4897 6.96889 22.5781 6.96889 22.6767C6.96889 22.7753 7.0084 22.8641 7.07216 22.9279L7.07294 22.9271C7.1367 22.9912 7.2255 23.0307 7.3233 23.0307C7.42109 23.0307 7.5095 22.9912 7.57326 22.9271C7.63741 22.8633 7.67692 22.7749 7.67692 22.6767C7.67692 22.4487 7.86234 22.2632 8.0904 22.2632C8.31885 22.2632 8.50427 22.4487 8.50427 22.6767C8.50427 23.003 8.37166 23.2987 8.15808 23.5123C7.94449 23.7259 7.64876 23.8581 7.3229 23.8581C6.99666 23.8581 6.70093 23.7259 6.48734 23.5123L6.48852 23.5111L6.48734 23.5103C6.27376 23.2967 6.14154 23.0018 6.14154 22.6767C6.14154 22.3517 6.27376 22.0571 6.48734 21.8435L6.4893 21.8416C6.70288 21.628 6.99783 21.4954 7.3229 21.4954H7.3233Z" fill="#67606C"/>
<path d="M1.91991 18.6089C2.04666 18.7982 1.99619 19.054 1.80686 19.1808C1.61753 19.3071 1.36131 19.257 1.23496 19.0677C0.839082 18.4762 0.52692 17.8238 0.315683 17.1263C0.110704 16.4495 0 15.7352 0 14.9998C0 14.2644 0.110704 13.5501 0.315683 12.8734C0.527311 12.1759 0.839473 11.5234 1.23496 10.9319C1.36131 10.7426 1.61753 10.6925 1.80686 10.8189C1.99619 10.9456 2.04666 11.2015 1.91991 11.3908C1.56824 11.9161 1.2909 12.4951 1.10391 13.1124C0.923968 13.7058 0.827346 14.3395 0.827346 14.9998C0.827346 15.6601 0.923968 16.2938 1.10391 16.8873C1.2909 17.5045 1.56824 18.0835 1.91991 18.6089Z" fill="#67606C"/>
<path d="M4.24506 16.5071C4.34481 16.7116 4.26032 16.9581 4.05573 17.0578C3.85154 17.1576 3.6047 17.0731 3.50495 16.8689C3.36373 16.5806 3.2542 16.2759 3.18066 15.9594C3.10868 15.6488 3.07074 15.3273 3.07074 14.9994C3.07074 14.6716 3.10868 14.3505 3.18066 14.0395C3.25381 13.723 3.36334 13.4183 3.50495 13.13C3.6047 12.9258 3.85193 12.8413 4.05573 12.9411C4.26032 13.0408 4.34481 13.2876 4.24506 13.4918C4.13279 13.7203 4.04478 13.9656 3.98532 14.2233C3.92821 14.4702 3.89809 14.7295 3.89809 14.9991C3.89809 15.2682 3.92821 15.5275 3.98532 15.7748C4.04478 16.0326 4.13279 16.2778 4.24506 16.5063V16.5071Z" fill="#67606C"/>
<path d="M7.32327 15.3538C7.55133 15.3538 7.73675 15.5392 7.73675 15.7677C7.73675 15.9957 7.55133 16.1811 7.32327 16.1811C6.99703 16.1811 6.7013 16.0489 6.48771 15.835C6.47871 15.826 6.4705 15.817 6.46228 15.8072C6.26396 15.5956 6.14191 15.3119 6.14191 14.9998C6.14191 14.6747 6.27413 14.3802 6.48771 14.1662L6.48967 14.1646C6.70325 13.9506 6.9982 13.8184 7.32327 13.8184C7.55133 13.8184 7.73675 14.0038 7.73675 14.2319C7.73675 14.4603 7.55133 14.6458 7.32327 14.6458C7.22469 14.6458 7.1359 14.6853 7.07213 14.7486C7.00837 14.8124 6.96886 14.9012 6.96886 14.9998C6.96886 15.0909 7.0025 15.1739 7.05805 15.2364L7.07253 15.2501C7.13629 15.3139 7.22509 15.3534 7.32288 15.3534L7.32327 15.3538Z" fill="#67606C"/>
<path d="M11.3908 1.91991C11.2015 2.04666 10.9456 1.99619 10.8189 1.80686C10.6925 1.61753 10.7426 1.36131 10.9319 1.23496C11.5234 0.839082 12.1759 0.52692 12.8734 0.315683C13.5501 0.110704 14.2644 0 14.9998 0C15.7352 0 16.4495 0.110704 17.1263 0.315683C17.8238 0.527311 18.4762 0.839473 19.0677 1.23496C19.257 1.36131 19.3071 1.61753 19.1808 1.80686C19.054 1.99619 18.7982 2.04666 18.6089 1.91991C18.0835 1.56824 17.5045 1.2909 16.8873 1.10391C16.2938 0.923968 15.6601 0.827346 14.9998 0.827346C14.3395 0.827346 13.7058 0.923968 13.1124 1.10391C12.4951 1.2909 11.9161 1.56824 11.3908 1.91991Z" fill="#67606C"/>
<path d="M13.4926 4.24512C13.288 4.34487 13.0415 4.26038 12.9418 4.05579C12.842 3.8516 12.9265 3.60476 13.1307 3.50501C13.419 3.36379 13.7238 3.25426 14.0402 3.18072C14.3508 3.10875 14.6724 3.0708 15.0002 3.0708C15.328 3.0708 15.6491 3.10875 15.9601 3.18072C16.2766 3.25387 16.5813 3.3634 16.8696 3.50501C17.0738 3.60476 17.1583 3.85199 17.0586 4.05579C16.9588 4.26038 16.712 4.34487 16.5078 4.24512C16.2793 4.13286 16.0341 4.04484 15.7763 3.98538C15.5294 3.92827 15.2701 3.89815 15.0006 3.89815C14.7314 3.89815 14.4721 3.92827 14.2249 3.98538C13.9671 4.04484 13.7218 4.13286 13.4934 4.24512H13.4926Z" fill="#67606C"/>
<path d="M14.6458 7.32333C14.6458 7.55139 14.4603 7.73681 14.2319 7.73681C14.0038 7.73681 13.8184 7.55139 13.8184 7.32333C13.8184 6.99826 13.9506 6.70331 14.1646 6.48973L14.1662 6.48777C14.3802 6.27419 14.6751 6.14197 14.9998 6.14197C15.3249 6.14197 15.6194 6.27419 15.8334 6.48777L15.8342 6.48895L15.835 6.48777C16.0489 6.70136 16.1811 6.99709 16.1811 7.32333C16.1811 7.55139 15.9957 7.73681 15.7677 7.73681C15.5392 7.73681 15.3538 7.55139 15.3538 7.32333C15.3538 7.22554 15.3143 7.13674 15.2505 7.07298L15.2513 7.07219C15.1876 7.00843 15.0988 6.96892 15.0002 6.96892C14.9016 6.96892 14.8128 7.00843 14.749 7.07219C14.6857 7.13596 14.6462 7.22476 14.6462 7.32333H14.6458Z" fill="#67606C"/>
<path d="M28.7643 19.0677C28.6379 19.257 28.3817 19.3071 28.1924 19.1808C28.003 19.054 27.9526 18.7982 28.0793 18.6089C28.431 18.0835 28.7083 17.5045 28.8953 16.8873C29.0753 16.2938 29.1719 15.6601 29.1719 14.9998C29.1719 14.3395 29.0753 13.7058 28.8953 13.1124C28.7083 12.4951 28.431 11.9161 28.0793 11.3908C27.9526 11.2015 28.003 10.9456 28.1924 10.8189C28.3817 10.6925 28.6379 10.7426 28.7643 10.9319C29.1601 11.5234 29.4723 12.1759 29.6835 12.8734C29.8885 13.5501 29.9992 14.2644 29.9992 14.9998C29.9992 15.7352 29.8885 16.4495 29.6835 17.1263C29.4719 17.8238 29.1598 18.4762 28.7643 19.0677Z" fill="#67606C"/>
<path d="M26.4946 16.8692C26.3949 17.0733 26.1477 17.1578 25.9439 17.0581C25.7393 16.9583 25.6548 16.7115 25.7545 16.5073C25.8668 16.2789 25.9548 16.0336 26.0143 15.7758C26.0714 15.529 26.1015 15.2696 26.1015 15.0001C26.1015 14.731 26.0714 14.4716 26.0143 14.2244C25.9548 13.9666 25.8668 13.7213 25.7545 13.4929C25.6548 13.2883 25.7393 13.0418 25.9439 12.9421C26.148 12.8423 26.3949 12.9268 26.4946 13.131C26.6359 13.4193 26.7454 13.7241 26.8189 14.0405C26.8909 14.3511 26.9288 14.6727 26.9288 15.0005C26.9288 15.3283 26.8909 15.6495 26.8189 15.9604C26.7458 16.2769 26.6362 16.5816 26.4946 16.8699V16.8692Z" fill="#67606C"/>
<path d="M22.6764 16.1811C22.4483 16.1811 22.2629 15.9957 22.2629 15.7676C22.2629 15.5392 22.4483 15.3538 22.6764 15.3538C22.7745 15.3538 22.863 15.3142 22.9267 15.2505C22.9909 15.1863 23.0304 15.0979 23.0304 15.0001C23.0304 14.9023 22.9909 14.8139 22.9267 14.7498L22.913 14.7353C22.8508 14.6801 22.7679 14.6465 22.6764 14.6465C22.4483 14.6465 22.2629 14.4611 22.2629 14.2326C22.2629 14.0046 22.4483 13.8192 22.6764 13.8192C22.9885 13.8192 23.2725 13.9412 23.4838 14.1399C23.4931 14.1477 23.5025 14.1564 23.5119 14.1653C23.7255 14.3789 23.8577 14.6747 23.8577 15.0005C23.8577 15.3268 23.7255 15.6221 23.5119 15.8357C23.2983 16.0497 23.0026 16.1819 22.6764 16.1819V16.1811Z" fill="#67606C"/>
<path d="M10.9319 28.7642C10.7426 28.6379 10.6925 28.3816 10.8189 28.1923C10.9456 28.003 11.2015 27.9525 11.3908 28.0793C11.9161 28.4309 12.4951 28.7083 13.1124 28.8953C13.7058 29.0752 14.3395 29.1718 14.9998 29.1718C15.6601 29.1718 16.2938 29.0752 16.8873 28.8953C17.5045 28.7083 18.0835 28.4309 18.6089 28.0793C18.7982 27.9525 19.054 28.003 19.1808 28.1923C19.3071 28.3816 19.257 28.6379 19.0677 28.7642C18.4762 29.1601 17.8238 29.4722 17.1263 29.6835C16.4495 29.8885 15.7352 29.9992 14.9998 29.9992C14.2644 29.9992 13.5501 29.8885 12.8734 29.6835C12.1759 29.4719 11.5234 29.1597 10.9319 28.7642Z" fill="#67606C"/>
<path d="M13.1304 26.4946C12.9262 26.3948 12.8417 26.1476 12.9414 25.9438C13.0412 25.7392 13.288 25.6547 13.4922 25.7545C13.7207 25.8667 13.9659 25.9547 14.2237 26.0142C14.4705 26.0713 14.7299 26.1014 14.9994 26.1014C15.2686 26.1014 15.5279 26.0713 15.7751 26.0142C16.0329 25.9547 16.2782 25.8667 16.5066 25.7545C16.7112 25.6547 16.9577 25.7392 17.0574 25.9438C17.1572 26.148 17.0727 26.3948 16.8685 26.4946C16.5802 26.6358 16.2755 26.7453 15.959 26.8189C15.6484 26.8908 15.3268 26.9288 14.999 26.9288C14.6712 26.9288 14.3501 26.8908 14.0391 26.8189C13.7226 26.7457 13.4179 26.6362 13.1296 26.4946H13.1304Z" fill="#67606C"/>
<path d="M13.8184 22.6763C13.8184 22.4482 14.0039 22.2628 14.2319 22.2628C14.4604 22.2628 14.6458 22.4482 14.6458 22.6763C14.6458 22.7749 14.6853 22.8637 14.7487 22.9274L14.7495 22.9267C14.8136 22.9908 14.902 23.0303 14.9998 23.0303C15.0976 23.0303 15.186 22.9908 15.2502 22.9267C15.3139 22.8629 15.3534 22.7745 15.3534 22.6763C15.3534 22.4482 15.5389 22.2628 15.7673 22.2628C15.9954 22.2628 16.1808 22.4482 16.1808 22.6763C16.1808 23.0025 16.0486 23.2983 15.8346 23.5119C15.621 23.7254 15.3257 23.8577 14.9994 23.8577C14.6736 23.8577 14.3778 23.7254 14.1642 23.5119L14.165 23.5107L14.1642 23.5099C13.9503 23.2963 13.8181 23.0014 13.8181 22.6763H13.8184Z" fill="#67606C"/>
</svg>
