<svg width="17" height="22" viewBox="0 0 17 22" fill="none" xmlns="http://www.w3.org/2000/svg">
<path opacity="0.5" d="M10.4812 20.3856C10.4172 20.3456 10.3425 20.3056 10.2452 20.3056C7.36785 20.2523 4.3932 20.2256 1.52787 20.9056C3.68387 18.0523 5.63186 14.7989 7.58119 11.4789C7.69986 11.2789 7.66254 11.119 7.5612 10.999C7.66254 10.879 7.69986 10.719 7.58119 10.519C5.63186 7.21229 3.68387 3.94829 1.52787 1.10029C4.3932 1.77095 7.36785 1.74962 10.2452 1.69762C10.3425 1.69628 10.4172 1.66028 10.4812 1.61362C12.3612 4.65495 14.1319 7.93229 15.9972 10.999C14.1319 14.079 12.3612 17.3456 10.4812 20.3856ZM16.9318 10.6789C14.8678 7.17228 12.8145 3.71362 10.5052 0.753622C10.4612 0.697622 10.3652 0.690954 10.2772 0.717621C10.2692 0.717621 10.2638 0.712282 10.2545 0.712282C7.2785 0.628283 4.22253 0.224277 1.25319 0.725611C1.21986 0.68161 1.18786 0.634945 1.15586 0.592278C1.0452 0.450945 0.611825 0.608282 0.782492 0.878948C2.82782 4.12695 4.72652 7.69229 6.74252 10.999C4.72652 14.3056 2.82782 17.879 0.782492 21.119C0.611825 21.399 1.0452 21.5456 1.15586 21.4123C1.18786 21.3723 1.21986 21.3189 1.25319 21.2789C4.22253 21.7723 7.2785 21.3723 10.2545 21.2923C10.2638 21.2923 10.2692 21.2789 10.2772 21.2789C10.3652 21.3056 10.4612 21.3056 10.5052 21.2523C12.8145 18.2923 14.8678 14.8256 16.9318 11.319C17.0025 11.199 17.0105 11.0923 16.9905 10.999C17.0105 10.9056 17.0025 10.7989 16.9318 10.6789Z" fill="#67606C"/>
</svg>
