<svg width="743" height="8" viewBox="0 0 743 8" fill="none" xmlns="http://www.w3.org/2000/svg">
<path opacity="0.5" d="M1.2337 3.75907C-0.415649 3.75907 -0.406738 6.02213 1.2337 6.0017C11.2151 6.0017 410.775 6.51222 420.74 5.83833C429.51 5.2257 663.036 -3.05272 673.778 4.69092C684.52 12.4346 728.587 3.79623 741.912 6.45096C742.826 6.63475 743.578 5.57286 742.382 5.28697C734.96 3.4695 701.642 3.83182 694.196 4.6895C689.739 5.22045 685.552 5.36623 683.24 4.6895C680.929 4.01277 674.678 1.74863 671.681 0.782966C663.595 -1.85134 430.513 2.96066 422.289 3.51203C411.749 4.24718 11.7898 3.75907 1.2337 3.75907Z" fill="#67606C"/>
</svg>
