<svg width="729" height="433" viewBox="0 0 729 433" fill="none" xmlns="http://www.w3.org/2000/svg">
<mask id="path-1-inside-1" fill="white">
<path d="M129.11 141.184C132.694 150.443 137.846 155.221 144.566 155.52V160C138.593 159.552 130.604 159.328 120.598 159.328C107.756 159.328 98.1984 159.552 91.9264 160V155.52C97.6011 155.221 101.633 154.549 104.022 153.504C106.561 152.309 107.83 150.219 107.83 147.232C107.83 144.693 106.934 141.184 105.142 136.704L91.4784 99.968H37.2704L28.0864 123.712C25.0998 131.776 23.6064 137.899 23.6064 142.08C23.6064 146.709 25.1744 150.069 28.3104 152.16C31.5958 154.251 36.5238 155.371 43.0944 155.52V160C34.5824 159.552 25.9958 159.328 17.3344 159.328C10.6144 159.328 5.01442 159.552 0.534424 160V155.52C8.00109 153.728 13.8998 147.232 18.2304 136.032L70.8704 0.287994H74.4544L129.11 141.184ZM89.6864 95.488L64.5984 28.512L39.0624 95.488H89.6864ZM226.972 87.424C242.503 89.3653 253.628 93.6213 260.348 100.192C267.068 106.613 270.428 114.304 270.428 123.264C270.428 130.432 268.338 136.779 264.156 142.304C260.124 147.829 254.226 152.16 246.46 155.296C238.695 158.432 229.511 160 218.908 160C215.175 160 211.964 159.925 209.276 159.776C200.018 159.477 191.132 159.328 182.62 159.328C170.375 159.328 161.116 159.552 154.844 160V155.52C160.22 155.221 164.103 154.624 166.492 153.728C169.031 152.832 170.748 151.115 171.644 148.576C172.54 146.037 172.988 141.931 172.988 136.256V47.552C172.988 41.8773 172.54 37.7707 171.644 35.232C170.748 32.6933 169.031 30.976 166.492 30.08C164.103 29.184 160.22 28.5867 154.844 28.288V23.808C161.116 24.256 170.226 24.48 182.172 24.48L205.02 24.256C207.559 24.1067 210.471 24.032 213.756 24.032C228.242 24.032 239.367 26.8693 247.132 32.544C254.898 38.0693 258.78 45.4613 258.78 54.72C258.78 61.888 256.242 68.3093 251.164 73.984C246.087 79.6587 238.023 83.9893 226.972 86.976V87.424ZM208.156 28.288C204.124 28.288 201.063 28.8107 198.972 29.856C197.031 30.9013 195.687 32.768 194.94 35.456C194.194 38.144 193.82 42.176 193.82 47.552V86.976H206.588C218.087 86.976 226.076 84.3627 230.556 79.136C235.036 73.9093 237.276 66.592 237.276 57.184C237.276 47.4773 234.962 40.2347 230.332 35.456C225.703 30.6773 218.311 28.288 208.156 28.288ZM208.38 154.848C221.97 154.848 231.975 152.16 238.396 146.784C244.818 141.259 248.028 133.12 248.028 122.368C248.028 111.915 245.042 104.075 239.068 98.848C233.095 93.472 223.538 90.784 210.396 90.784H193.82V136.256C193.82 141.632 194.194 145.589 194.94 148.128C195.687 150.667 197.031 152.459 198.972 153.504C201.063 154.4 204.199 154.848 208.38 154.848ZM363.509 20.672C377.248 20.672 389.269 23.4347 399.573 28.96C410.026 34.336 418.09 42.3253 423.765 52.928C429.44 63.3813 432.277 75.9253 432.277 90.56C432.277 104.896 429.29 117.589 423.317 128.64C417.493 139.541 409.354 148.053 398.901 154.176C388.448 160.149 376.576 163.136 363.285 163.136C349.546 163.136 337.45 160.448 326.997 155.072C316.693 149.547 308.704 141.557 303.029 131.104C297.354 120.501 294.517 107.883 294.517 93.248C294.517 78.912 297.429 66.2933 303.253 55.392C309.226 44.3413 317.44 35.8293 327.893 29.856C338.346 23.7333 350.218 20.672 363.509 20.672ZM362.613 24.704C353.504 24.704 345.44 27.616 338.421 33.44C331.552 39.1147 326.25 47.104 322.517 57.408C318.784 67.5627 316.917 79.2107 316.917 92.352C316.917 105.643 319.008 117.365 323.189 127.52C327.37 137.675 333.045 145.515 340.213 151.04C347.381 156.416 355.37 159.104 364.181 159.104C373.29 159.104 381.28 156.267 388.149 150.592C395.168 144.768 400.544 136.779 404.277 126.624C408.01 116.32 409.877 104.597 409.877 91.456C409.877 78.1653 407.786 66.4427 403.605 56.288C399.424 46.1333 393.749 38.368 386.581 32.992C379.413 27.4667 371.424 24.704 362.613 24.704ZM586.802 28.288C581.575 28.5867 577.693 29.408 575.154 30.752C572.615 31.9467 570.898 34.0373 570.002 37.024C569.106 39.8613 568.658 44.1173 568.658 49.792V99.296C568.658 109.6 567.911 118.411 566.418 125.728C565.074 132.896 562.759 139.168 559.474 144.544C555.89 150.219 550.663 154.773 543.794 158.208C537.074 161.493 529.383 163.136 520.722 163.136C505.341 163.136 493.543 159.851 485.33 153.28C478.759 147.456 474.354 140.811 472.114 133.344C469.874 125.877 468.754 114.752 468.754 99.968V47.552C468.754 41.8773 468.306 37.7707 467.41 35.232C466.514 32.6933 464.797 30.976 462.258 30.08C459.869 29.184 455.986 28.5867 450.61 28.288V23.808C456.882 24.256 466.439 24.48 479.282 24.48C491.229 24.48 500.711 24.256 507.73 23.808V28.288C502.354 28.5867 498.397 29.184 495.858 30.08C493.469 30.976 491.826 32.6933 490.93 35.232C490.034 37.7707 489.586 41.8773 489.586 47.552V103.776C489.586 114.827 490.333 124.011 491.826 131.328C493.319 138.496 496.455 144.32 501.234 148.8C506.162 153.131 513.33 155.296 522.738 155.296C537.671 155.296 548.199 150.592 554.322 141.184C560.445 131.776 563.506 118.635 563.506 101.76V49.792C563.506 41.728 562.013 36.2027 559.026 33.216C556.189 30.2293 550.887 28.5867 543.122 28.288V23.808C548.498 24.256 556.114 24.48 565.97 24.48C574.93 24.48 581.874 24.256 586.802 23.808V28.288ZM728.415 23.808C727.37 33.664 726.847 42.4747 726.847 50.24C726.847 58.0053 727.071 64.128 727.519 68.608H722.367C721.471 58.1547 720.053 50.1653 718.111 44.64C716.17 39.1147 713.034 35.1573 708.703 32.768C704.373 30.2293 698.175 28.96 690.111 28.96H675.775V134.016C675.775 140.288 676.373 144.843 677.567 147.68C678.762 150.517 680.853 152.459 683.839 153.504C686.826 154.549 691.679 155.221 698.399 155.52V160C690.634 159.552 679.658 159.328 665.471 159.328C650.538 159.328 639.487 159.552 632.319 160V155.52C639.039 155.221 643.893 154.549 646.879 153.504C649.866 152.459 651.957 150.517 653.151 147.68C654.346 144.843 654.943 140.288 654.943 134.016V28.96H640.607C632.543 28.96 626.346 30.2293 622.015 32.768C617.685 35.1573 614.549 39.1147 612.607 44.64C610.666 50.1653 609.247 58.1547 608.351 68.608H603.199C603.647 63.8293 603.871 57.7067 603.871 50.24C603.871 42.4747 603.349 33.664 602.303 23.808C614.698 24.256 635.754 24.48 665.471 24.48C695.039 24.48 716.021 24.256 728.415 23.808ZM609.886 274.888C604.66 275.187 600.777 276.008 598.238 277.352C595.7 278.547 593.982 280.637 593.086 283.624C592.19 286.461 591.742 290.717 591.742 296.392V363.816C591.742 374.568 590.996 383.827 589.502 391.592C588.158 399.208 585.844 405.779 582.558 411.304C578.825 417.725 573.3 422.803 565.982 426.536C558.814 430.269 550.676 432.136 541.566 432.136C525.14 432.136 512.596 428.104 503.934 420.04C497.364 413.917 492.958 406.973 490.718 399.208C488.478 391.443 487.358 379.869 487.358 364.488V294.152C487.358 288.477 486.91 284.371 486.014 281.832C485.118 279.293 483.401 277.576 480.862 276.68C478.473 275.784 474.59 275.187 469.214 274.888V270.408C475.486 270.856 485.044 271.08 497.886 271.08C509.982 271.08 519.465 270.856 526.334 270.408V274.888C520.958 275.187 517.001 275.784 514.462 276.68C512.073 277.576 510.43 279.293 509.534 281.832C508.638 284.371 508.19 288.477 508.19 294.152V368.296C508.19 380.243 509.012 390.173 510.654 398.088C512.297 406.003 515.657 412.349 520.734 417.128C525.961 421.907 533.577 424.296 543.582 424.296C559.412 424.296 570.537 419.219 576.958 409.064C583.38 398.909 586.59 384.648 586.59 366.28V296.392C586.59 288.328 585.097 282.803 582.11 279.816C579.273 276.829 573.972 275.187 566.206 274.888V270.408C571.582 270.856 579.198 271.08 589.054 271.08C598.014 271.08 604.958 270.856 609.886 270.408V274.888ZM673.469 289.672C680.04 289.672 685.192 290.419 688.925 291.912C692.808 293.256 696.765 295.272 700.797 297.96C704.082 300.051 706.621 301.096 708.413 301.096C709.757 301.096 710.802 300.349 711.549 298.856C712.296 297.213 712.893 294.675 713.341 291.24H718.493C717.746 299.005 717.373 312.744 717.373 332.456H712.221C711.325 321.704 707.816 312.595 701.693 305.128C695.72 297.661 686.984 293.928 675.485 293.928C667.57 293.928 661 296.019 655.773 300.2C650.696 304.381 648.157 309.683 648.157 316.104C648.157 320.733 649.277 324.765 651.517 328.2C653.906 331.635 656.893 334.621 660.477 337.16C664.21 339.549 669.437 342.536 676.157 346.12L683.549 350.152C692.808 355.08 700.2 359.485 705.725 363.368C711.4 367.251 715.954 371.731 719.389 376.808C722.824 381.736 724.541 387.485 724.541 394.056C724.541 406.152 720.136 415.56 711.325 422.28C702.664 428.851 691.762 432.136 678.621 432.136C671.453 432.136 665.554 431.389 660.925 429.896C656.445 428.403 652.114 426.387 647.933 423.848C644.648 421.757 642.109 420.712 640.317 420.712C638.973 420.712 637.928 421.533 637.181 423.176C636.434 424.669 635.837 427.133 635.389 430.568H630.237C630.834 423.251 631.133 406.824 631.133 381.288H636.285C637.33 395.176 641.064 406.376 647.485 414.888C653.906 423.4 663.762 427.656 677.053 427.656C684.52 427.656 690.941 425.565 696.317 421.384C701.842 417.053 704.605 410.707 704.605 402.344C704.605 397.416 703.186 393.085 700.349 389.352C697.512 385.469 693.704 382.035 688.925 379.048C684.146 376.061 677.501 372.328 668.989 367.848C656.744 361.576 647.41 355.304 640.989 349.032C634.568 342.76 631.357 334.621 631.357 324.616C631.357 313.565 635.389 304.979 643.453 298.856C651.666 292.733 661.672 289.672 673.469 289.672Z"/>
</mask>
<path d="M129.11 141.184C132.694 150.443 137.846 155.221 144.566 155.52V160C138.593 159.552 130.604 159.328 120.598 159.328C107.756 159.328 98.1984 159.552 91.9264 160V155.52C97.6011 155.221 101.633 154.549 104.022 153.504C106.561 152.309 107.83 150.219 107.83 147.232C107.83 144.693 106.934 141.184 105.142 136.704L91.4784 99.968H37.2704L28.0864 123.712C25.0998 131.776 23.6064 137.899 23.6064 142.08C23.6064 146.709 25.1744 150.069 28.3104 152.16C31.5958 154.251 36.5238 155.371 43.0944 155.52V160C34.5824 159.552 25.9958 159.328 17.3344 159.328C10.6144 159.328 5.01442 159.552 0.534424 160V155.52C8.00109 153.728 13.8998 147.232 18.2304 136.032L70.8704 0.287994H74.4544L129.11 141.184ZM89.6864 95.488L64.5984 28.512L39.0624 95.488H89.6864ZM226.972 87.424C242.503 89.3653 253.628 93.6213 260.348 100.192C267.068 106.613 270.428 114.304 270.428 123.264C270.428 130.432 268.338 136.779 264.156 142.304C260.124 147.829 254.226 152.16 246.46 155.296C238.695 158.432 229.511 160 218.908 160C215.175 160 211.964 159.925 209.276 159.776C200.018 159.477 191.132 159.328 182.62 159.328C170.375 159.328 161.116 159.552 154.844 160V155.52C160.22 155.221 164.103 154.624 166.492 153.728C169.031 152.832 170.748 151.115 171.644 148.576C172.54 146.037 172.988 141.931 172.988 136.256V47.552C172.988 41.8773 172.54 37.7707 171.644 35.232C170.748 32.6933 169.031 30.976 166.492 30.08C164.103 29.184 160.22 28.5867 154.844 28.288V23.808C161.116 24.256 170.226 24.48 182.172 24.48L205.02 24.256C207.559 24.1067 210.471 24.032 213.756 24.032C228.242 24.032 239.367 26.8693 247.132 32.544C254.898 38.0693 258.78 45.4613 258.78 54.72C258.78 61.888 256.242 68.3093 251.164 73.984C246.087 79.6587 238.023 83.9893 226.972 86.976V87.424ZM208.156 28.288C204.124 28.288 201.063 28.8107 198.972 29.856C197.031 30.9013 195.687 32.768 194.94 35.456C194.194 38.144 193.82 42.176 193.82 47.552V86.976H206.588C218.087 86.976 226.076 84.3627 230.556 79.136C235.036 73.9093 237.276 66.592 237.276 57.184C237.276 47.4773 234.962 40.2347 230.332 35.456C225.703 30.6773 218.311 28.288 208.156 28.288ZM208.38 154.848C221.97 154.848 231.975 152.16 238.396 146.784C244.818 141.259 248.028 133.12 248.028 122.368C248.028 111.915 245.042 104.075 239.068 98.848C233.095 93.472 223.538 90.784 210.396 90.784H193.82V136.256C193.82 141.632 194.194 145.589 194.94 148.128C195.687 150.667 197.031 152.459 198.972 153.504C201.063 154.4 204.199 154.848 208.38 154.848ZM363.509 20.672C377.248 20.672 389.269 23.4347 399.573 28.96C410.026 34.336 418.09 42.3253 423.765 52.928C429.44 63.3813 432.277 75.9253 432.277 90.56C432.277 104.896 429.29 117.589 423.317 128.64C417.493 139.541 409.354 148.053 398.901 154.176C388.448 160.149 376.576 163.136 363.285 163.136C349.546 163.136 337.45 160.448 326.997 155.072C316.693 149.547 308.704 141.557 303.029 131.104C297.354 120.501 294.517 107.883 294.517 93.248C294.517 78.912 297.429 66.2933 303.253 55.392C309.226 44.3413 317.44 35.8293 327.893 29.856C338.346 23.7333 350.218 20.672 363.509 20.672ZM362.613 24.704C353.504 24.704 345.44 27.616 338.421 33.44C331.552 39.1147 326.25 47.104 322.517 57.408C318.784 67.5627 316.917 79.2107 316.917 92.352C316.917 105.643 319.008 117.365 323.189 127.52C327.37 137.675 333.045 145.515 340.213 151.04C347.381 156.416 355.37 159.104 364.181 159.104C373.29 159.104 381.28 156.267 388.149 150.592C395.168 144.768 400.544 136.779 404.277 126.624C408.01 116.32 409.877 104.597 409.877 91.456C409.877 78.1653 407.786 66.4427 403.605 56.288C399.424 46.1333 393.749 38.368 386.581 32.992C379.413 27.4667 371.424 24.704 362.613 24.704ZM586.802 28.288C581.575 28.5867 577.693 29.408 575.154 30.752C572.615 31.9467 570.898 34.0373 570.002 37.024C569.106 39.8613 568.658 44.1173 568.658 49.792V99.296C568.658 109.6 567.911 118.411 566.418 125.728C565.074 132.896 562.759 139.168 559.474 144.544C555.89 150.219 550.663 154.773 543.794 158.208C537.074 161.493 529.383 163.136 520.722 163.136C505.341 163.136 493.543 159.851 485.33 153.28C478.759 147.456 474.354 140.811 472.114 133.344C469.874 125.877 468.754 114.752 468.754 99.968V47.552C468.754 41.8773 468.306 37.7707 467.41 35.232C466.514 32.6933 464.797 30.976 462.258 30.08C459.869 29.184 455.986 28.5867 450.61 28.288V23.808C456.882 24.256 466.439 24.48 479.282 24.48C491.229 24.48 500.711 24.256 507.73 23.808V28.288C502.354 28.5867 498.397 29.184 495.858 30.08C493.469 30.976 491.826 32.6933 490.93 35.232C490.034 37.7707 489.586 41.8773 489.586 47.552V103.776C489.586 114.827 490.333 124.011 491.826 131.328C493.319 138.496 496.455 144.32 501.234 148.8C506.162 153.131 513.33 155.296 522.738 155.296C537.671 155.296 548.199 150.592 554.322 141.184C560.445 131.776 563.506 118.635 563.506 101.76V49.792C563.506 41.728 562.013 36.2027 559.026 33.216C556.189 30.2293 550.887 28.5867 543.122 28.288V23.808C548.498 24.256 556.114 24.48 565.97 24.48C574.93 24.48 581.874 24.256 586.802 23.808V28.288ZM728.415 23.808C727.37 33.664 726.847 42.4747 726.847 50.24C726.847 58.0053 727.071 64.128 727.519 68.608H722.367C721.471 58.1547 720.053 50.1653 718.111 44.64C716.17 39.1147 713.034 35.1573 708.703 32.768C704.373 30.2293 698.175 28.96 690.111 28.96H675.775V134.016C675.775 140.288 676.373 144.843 677.567 147.68C678.762 150.517 680.853 152.459 683.839 153.504C686.826 154.549 691.679 155.221 698.399 155.52V160C690.634 159.552 679.658 159.328 665.471 159.328C650.538 159.328 639.487 159.552 632.319 160V155.52C639.039 155.221 643.893 154.549 646.879 153.504C649.866 152.459 651.957 150.517 653.151 147.68C654.346 144.843 654.943 140.288 654.943 134.016V28.96H640.607C632.543 28.96 626.346 30.2293 622.015 32.768C617.685 35.1573 614.549 39.1147 612.607 44.64C610.666 50.1653 609.247 58.1547 608.351 68.608H603.199C603.647 63.8293 603.871 57.7067 603.871 50.24C603.871 42.4747 603.349 33.664 602.303 23.808C614.698 24.256 635.754 24.48 665.471 24.48C695.039 24.48 716.021 24.256 728.415 23.808ZM609.886 274.888C604.66 275.187 600.777 276.008 598.238 277.352C595.7 278.547 593.982 280.637 593.086 283.624C592.19 286.461 591.742 290.717 591.742 296.392V363.816C591.742 374.568 590.996 383.827 589.502 391.592C588.158 399.208 585.844 405.779 582.558 411.304C578.825 417.725 573.3 422.803 565.982 426.536C558.814 430.269 550.676 432.136 541.566 432.136C525.14 432.136 512.596 428.104 503.934 420.04C497.364 413.917 492.958 406.973 490.718 399.208C488.478 391.443 487.358 379.869 487.358 364.488V294.152C487.358 288.477 486.91 284.371 486.014 281.832C485.118 279.293 483.401 277.576 480.862 276.68C478.473 275.784 474.59 275.187 469.214 274.888V270.408C475.486 270.856 485.044 271.08 497.886 271.08C509.982 271.08 519.465 270.856 526.334 270.408V274.888C520.958 275.187 517.001 275.784 514.462 276.68C512.073 277.576 510.43 279.293 509.534 281.832C508.638 284.371 508.19 288.477 508.19 294.152V368.296C508.19 380.243 509.012 390.173 510.654 398.088C512.297 406.003 515.657 412.349 520.734 417.128C525.961 421.907 533.577 424.296 543.582 424.296C559.412 424.296 570.537 419.219 576.958 409.064C583.38 398.909 586.59 384.648 586.59 366.28V296.392C586.59 288.328 585.097 282.803 582.11 279.816C579.273 276.829 573.972 275.187 566.206 274.888V270.408C571.582 270.856 579.198 271.08 589.054 271.08C598.014 271.08 604.958 270.856 609.886 270.408V274.888ZM673.469 289.672C680.04 289.672 685.192 290.419 688.925 291.912C692.808 293.256 696.765 295.272 700.797 297.96C704.082 300.051 706.621 301.096 708.413 301.096C709.757 301.096 710.802 300.349 711.549 298.856C712.296 297.213 712.893 294.675 713.341 291.24H718.493C717.746 299.005 717.373 312.744 717.373 332.456H712.221C711.325 321.704 707.816 312.595 701.693 305.128C695.72 297.661 686.984 293.928 675.485 293.928C667.57 293.928 661 296.019 655.773 300.2C650.696 304.381 648.157 309.683 648.157 316.104C648.157 320.733 649.277 324.765 651.517 328.2C653.906 331.635 656.893 334.621 660.477 337.16C664.21 339.549 669.437 342.536 676.157 346.12L683.549 350.152C692.808 355.08 700.2 359.485 705.725 363.368C711.4 367.251 715.954 371.731 719.389 376.808C722.824 381.736 724.541 387.485 724.541 394.056C724.541 406.152 720.136 415.56 711.325 422.28C702.664 428.851 691.762 432.136 678.621 432.136C671.453 432.136 665.554 431.389 660.925 429.896C656.445 428.403 652.114 426.387 647.933 423.848C644.648 421.757 642.109 420.712 640.317 420.712C638.973 420.712 637.928 421.533 637.181 423.176C636.434 424.669 635.837 427.133 635.389 430.568H630.237C630.834 423.251 631.133 406.824 631.133 381.288H636.285C637.33 395.176 641.064 406.376 647.485 414.888C653.906 423.4 663.762 427.656 677.053 427.656C684.52 427.656 690.941 425.565 696.317 421.384C701.842 417.053 704.605 410.707 704.605 402.344C704.605 397.416 703.186 393.085 700.349 389.352C697.512 385.469 693.704 382.035 688.925 379.048C684.146 376.061 677.501 372.328 668.989 367.848C656.744 361.576 647.41 355.304 640.989 349.032C634.568 342.76 631.357 334.621 631.357 324.616C631.357 313.565 635.389 304.979 643.453 298.856C651.666 292.733 661.672 289.672 673.469 289.672Z" stroke="#EEECEA" stroke-width="4" mask="url(#path-1-inside-1)"/>
</svg>
