<svg width="24" height="334" viewBox="0 0 24 334" fill="none" xmlns="http://www.w3.org/2000/svg">
<path d="M1.8 319.716C2.936 319.828 3.96 319.884 4.872 319.884C5.672 319.884 6.328 319.86 6.84 319.812V320.364C5.608 320.492 4.696 320.652 4.104 320.844C3.496 321.036 3.056 321.372 2.784 321.852C2.496 322.332 2.352 323.068 2.352 324.06V325.356H16.008C16.68 325.356 17.168 325.292 17.472 325.164C17.776 325.036 17.984 324.812 18.096 324.492C18.208 324.172 18.28 323.652 18.312 322.932H18.792C18.744 323.764 18.72 324.94 18.72 326.46C18.72 328.06 18.744 329.244 18.792 330.012H18.312C18.28 329.292 18.208 328.772 18.096 328.452C17.984 328.132 17.776 327.908 17.472 327.78C17.168 327.652 16.68 327.588 16.008 327.588H2.352V328.884C2.352 329.876 2.496 330.612 2.784 331.092C3.056 331.572 3.496 331.908 4.104 332.1C4.696 332.292 5.608 332.452 6.84 332.58V333.132C6.328 333.084 5.672 333.06 4.872 333.06C3.96 333.06 2.936 333.116 1.8 333.228C1.848 331.9 1.872 329.644 1.872 326.46C1.872 323.292 1.848 321.044 1.8 319.716Z" fill="#DBD8D1"/>
<path d="M8.976 313.494C7.968 313.094 7.24 312.542 6.792 311.838C6.328 311.118 6.096 310.31 6.096 309.414C6.096 308.294 6.4 307.446 7.008 306.87C7.328 306.566 7.728 306.35 8.208 306.222C8.688 306.094 9.336 306.03 10.152 306.03H16.56C17.216 306.03 17.672 305.894 17.928 305.622C18.168 305.35 18.288 304.878 18.288 304.206H18.792C18.728 305.678 18.696 306.638 18.696 307.086C18.696 307.534 18.728 308.43 18.792 309.774H18.288C18.288 309.182 18.168 308.774 17.928 308.55C17.672 308.31 17.216 308.19 16.56 308.19H9.624C8.728 308.19 8.048 308.318 7.584 308.574C7.104 308.83 6.864 309.35 6.864 310.134C6.864 310.79 7.048 311.374 7.416 311.886C7.784 312.382 8.304 312.774 8.976 313.062C9.632 313.35 10.376 313.494 11.208 313.494H16.56C17.216 313.494 17.672 313.382 17.928 313.158C18.168 312.918 18.288 312.502 18.288 311.91H18.792C18.728 313.254 18.696 314.15 18.696 314.598C18.696 315.046 18.728 316.006 18.792 317.478H18.288C18.288 316.806 18.168 316.334 17.928 316.062C17.672 315.79 17.216 315.654 16.56 315.654H2.88C2.144 315.654 1.608 315.79 1.272 316.062C0.936 316.334 0.768 316.806 0.768 317.478H0.264001C0.312 316.966 0.336 316.47 0.336 315.99C0.336 314.982 0.224 314.15 0 313.494H8.976Z" fill="#DBD8D1"/>
<path d="M15.912 291.537C16.792 291.825 17.552 292.369 18.192 293.169C18.816 293.953 19.128 294.905 19.128 296.025C19.128 297.161 18.872 298.145 18.36 298.977C17.832 299.809 17.104 300.449 16.176 300.897C15.232 301.329 14.144 301.545 12.912 301.545C11.52 301.545 10.312 301.321 9.288 300.873C8.264 300.425 7.48 299.793 6.936 298.977C6.376 298.161 6.096 297.209 6.096 296.121C6.096 294.681 6.536 293.577 7.416 292.809C8.28 292.025 9.6 291.633 11.376 291.633V299.145C11.824 299.193 12.336 299.217 12.912 299.217C13.968 299.217 14.888 299.049 15.672 298.713C16.456 298.361 17.064 297.905 17.496 297.345C17.912 296.769 18.12 296.169 18.12 295.545C18.12 294.777 17.936 294.097 17.568 293.505C17.2 292.913 16.584 292.417 15.72 292.017L15.912 291.537ZM6.552 296.217C6.552 296.969 6.92 297.617 7.656 298.161C8.392 298.705 9.48 299.041 10.92 299.169V293.937C9.672 293.905 8.632 294.089 7.8 294.489C6.968 294.873 6.552 295.449 6.552 296.217Z" fill="#DBD8D1"/>
<path d="M17.592 266.291C18.136 266.659 18.528 267.027 18.768 267.395C19.008 267.763 19.128 268.251 19.128 268.859C19.128 269.515 18.936 270.059 18.552 270.491C18.168 270.907 17.496 271.219 16.536 271.427L14.136 271.955C13.304 272.147 12.664 272.331 12.216 272.507C11.768 272.667 11.408 272.915 11.136 273.251C10.864 273.587 10.728 274.059 10.728 274.667V276.947H16.248C16.856 276.947 17.296 276.899 17.568 276.803C17.84 276.707 18.024 276.531 18.12 276.275C18.216 276.003 18.28 275.579 18.312 275.003H18.792C18.744 275.739 18.72 276.755 18.72 278.051C18.72 279.427 18.744 280.451 18.792 281.123H18.312C18.28 280.547 18.216 280.131 18.12 279.875C18.024 279.603 17.84 279.419 17.568 279.323C17.296 279.227 16.856 279.179 16.248 279.179H4.344C3.736 279.179 3.296 279.227 3.024 279.323C2.752 279.419 2.568 279.603 2.472 279.875C2.376 280.131 2.312 280.547 2.28 281.123H1.8C1.848 280.451 1.872 279.475 1.872 278.195L1.848 275.603C1.832 275.299 1.824 274.955 1.824 274.571C1.824 272.715 2.216 271.291 3 270.299C3.768 269.291 4.768 268.787 6 268.787C6.624 268.787 7.256 268.939 7.896 269.243C8.52 269.531 9.088 270.027 9.6 270.731C10.096 271.419 10.432 272.323 10.608 273.443L10.656 273.155C10.832 272.099 11.152 271.331 11.616 270.851C12.08 270.371 12.816 270.019 13.824 269.795L16.272 269.195C17.008 269.035 17.52 268.867 17.808 268.691C18.096 268.515 18.24 268.275 18.24 267.971C18.24 267.699 18.168 267.475 18.024 267.299C17.88 267.107 17.648 266.891 17.328 266.651L17.592 266.291ZM2.28 275.171C2.28 275.667 2.336 276.043 2.448 276.299C2.56 276.539 2.76 276.707 3.048 276.803C3.336 276.899 3.768 276.947 4.344 276.947H10.248V275.339C10.248 273.755 9.896 272.667 9.192 272.075C8.488 271.483 7.512 271.187 6.264 271.187C4.952 271.187 3.96 271.499 3.288 272.123C2.616 272.747 2.28 273.763 2.28 275.171Z" fill="#DBD8D1"/>
<path d="M0.432 261.937C0.432 261.521 0.584 261.161 0.888 260.857C1.192 260.553 1.552 260.401 1.968 260.401C2.384 260.401 2.744 260.553 3.048 260.857C3.352 261.161 3.504 261.521 3.504 261.937C3.504 262.353 3.352 262.713 3.048 263.017C2.744 263.321 2.384 263.473 1.968 263.473C1.552 263.473 1.192 263.321 0.888 263.017C0.584 262.713 0.432 262.353 0.432 261.937ZM16.56 260.689C17.216 260.689 17.672 260.553 17.928 260.281C18.168 260.009 18.288 259.537 18.288 258.865H18.792C18.728 260.337 18.696 261.305 18.696 261.769C18.696 262.233 18.728 263.201 18.792 264.673H18.288C18.288 264.001 18.168 263.529 17.928 263.257C17.672 262.985 17.216 262.849 16.56 262.849H9.048C8.312 262.849 7.776 262.985 7.44 263.257C7.104 263.529 6.936 264.001 6.936 264.673H6.432C6.48 264.161 6.504 263.665 6.504 263.185C6.504 262.177 6.392 261.345 6.168 260.689H16.56Z" fill="#DBD8D1"/>
<path d="M6.504 247.298C6.504 246.594 6.48 245.986 6.432 245.474H6.912C6.944 245.794 7.088 246.082 7.344 246.338C7.6 246.578 8.016 246.81 8.592 247.034L18.912 250.97V251.378L8.28 255.794C7.736 256.034 7.376 256.266 7.2 256.49C7.024 256.714 6.936 256.946 6.936 257.186H6.432C6.496 256.354 6.528 255.65 6.528 255.074C6.528 253.842 6.496 252.802 6.432 251.954H6.936C6.936 252.546 6.984 252.978 7.08 253.25C7.16 253.522 7.384 253.658 7.752 253.658C7.976 253.658 8.328 253.57 8.808 253.394L16.104 250.442L9.168 247.802C8.688 247.626 8.312 247.538 8.04 247.538C7.672 247.538 7.408 247.682 7.248 247.97C7.072 248.242 6.96 248.69 6.912 249.314H6.432C6.48 248.482 6.504 247.81 6.504 247.298Z" fill="#DBD8D1"/>
<path d="M15.912 233.294C16.792 233.582 17.552 234.126 18.192 234.926C18.816 235.71 19.128 236.662 19.128 237.782C19.128 238.918 18.872 239.902 18.36 240.734C17.832 241.566 17.104 242.206 16.176 242.654C15.232 243.086 14.144 243.302 12.912 243.302C11.52 243.302 10.312 243.078 9.288 242.63C8.264 242.182 7.48 241.55 6.936 240.734C6.376 239.918 6.096 238.966 6.096 237.878C6.096 236.438 6.536 235.334 7.416 234.566C8.28 233.782 9.6 233.39 11.376 233.39V240.902C11.824 240.95 12.336 240.974 12.912 240.974C13.968 240.974 14.888 240.806 15.672 240.47C16.456 240.118 17.064 239.662 17.496 239.102C17.912 238.526 18.12 237.926 18.12 237.302C18.12 236.534 17.936 235.854 17.568 235.262C17.2 234.67 16.584 234.174 15.72 233.774L15.912 233.294ZM6.552 237.974C6.552 238.726 6.92 239.374 7.656 239.918C8.392 240.462 9.48 240.798 10.92 240.926V235.694C9.672 235.662 8.632 235.846 7.8 236.246C6.968 236.63 6.552 237.206 6.552 237.974Z" fill="#DBD8D1"/>
<path d="M6.096 222.906C6.096 222.266 6.28 221.746 6.648 221.346C7.016 220.93 7.464 220.722 7.992 220.722C8.408 220.722 8.768 220.85 9.072 221.106C9.36 221.346 9.504 221.674 9.504 222.09C9.504 222.442 9.392 222.746 9.168 223.002C8.944 223.242 8.64 223.362 8.256 223.362C7.728 223.362 7.296 223.09 6.96 222.546C6.8 222.658 6.72 222.826 6.72 223.05C6.72 223.674 6.968 224.242 7.464 224.754C7.944 225.266 8.536 225.666 9.24 225.954C9.944 226.242 10.608 226.386 11.232 226.386H16.32C17.056 226.386 17.568 226.178 17.856 225.762C18.144 225.33 18.288 224.69 18.288 223.842H18.792L18.768 224.418C18.72 226.05 18.696 227.09 18.696 227.538C18.696 227.954 18.728 228.898 18.792 230.37H18.288C18.288 229.698 18.168 229.226 17.928 228.954C17.672 228.682 17.216 228.546 16.56 228.546H9.048C8.312 228.546 7.776 228.682 7.44 228.954C7.104 229.226 6.936 229.698 6.936 230.37H6.432C6.48 229.858 6.504 229.362 6.504 228.882C6.504 227.874 6.392 227.042 6.168 226.386H9.168C8.368 226.098 7.656 225.642 7.032 225.018C6.408 224.378 6.096 223.674 6.096 222.906Z" fill="#DBD8D1"/>
<path d="M6.096 205.941C6.096 204.309 6.64 202.997 7.728 202.005C8.8 200.997 10.432 200.493 12.624 200.493C14.816 200.493 16.448 200.997 17.52 202.005C18.592 202.997 19.128 204.309 19.128 205.941C19.128 207.573 18.592 208.893 17.52 209.901C16.448 210.893 14.816 211.389 12.624 211.389C10.432 211.389 8.8 210.893 7.728 209.901C6.64 208.893 6.096 207.573 6.096 205.941ZM6.576 205.941C6.576 206.901 7.072 207.661 8.064 208.221C9.04 208.781 10.56 209.061 12.624 209.061C14.688 209.061 16.208 208.781 17.184 208.221C18.16 207.661 18.648 206.901 18.648 205.941C18.648 204.981 18.16 204.221 17.184 203.661C16.208 203.101 14.688 202.821 12.624 202.821C10.56 202.821 9.04 203.101 8.064 203.661C7.072 204.221 6.576 204.981 6.576 205.941Z" fill="#DBD8D1"/>
<path d="M0.0239997 191.545C0.0239997 190.713 0.24 190.017 0.672 189.457C1.072 188.961 1.568 188.713 2.16 188.713C2.528 188.713 2.832 188.833 3.072 189.073C3.312 189.313 3.432 189.617 3.432 189.985C3.432 190.353 3.32 190.665 3.096 190.921C2.856 191.177 2.536 191.305 2.136 191.305C1.8 191.305 1.528 191.217 1.32 191.041C1.112 190.849 0.976 190.601 0.912 190.297C0.752 190.345 0.624 190.473 0.528 190.681C0.432001 190.889 0.384001 191.153 0.384001 191.473C0.384001 191.825 0.464001 192.137 0.624001 192.409C0.784 192.681 1 192.889 1.272 193.033C1.592 193.209 2.064 193.329 2.688 193.393C3.312 193.441 4.36 193.465 5.832 193.465H6.456V190.897H6.936V193.465H16.32C17.056 193.465 17.568 193.257 17.856 192.841C18.144 192.409 18.288 191.769 18.288 190.921H18.792L18.768 191.497C18.72 193.129 18.696 194.169 18.696 194.617C18.696 195.033 18.728 195.977 18.792 197.449H18.288C18.288 196.777 18.168 196.305 17.928 196.033C17.672 195.761 17.216 195.625 16.56 195.625H6.936V197.545H6.456V195.625C5.048 195.625 3.96 195.537 3.192 195.361C2.424 195.185 1.768 194.865 1.224 194.401C0.856 194.081 0.568 193.673 0.360001 193.177C0.136 192.681 0.0239997 192.137 0.0239997 191.545Z" fill="#DBD8D1"/>
<path d="M2.28 164.664C2.312 165.24 2.376 165.664 2.472 165.936C2.568 166.192 2.752 166.368 3.024 166.464C3.296 166.56 3.736 166.608 4.344 166.608H16.248C16.856 166.608 17.296 166.56 17.568 166.464C17.84 166.368 18.024 166.192 18.12 165.936C18.216 165.664 18.28 165.24 18.312 164.664H18.792C18.744 165.336 18.72 166.36 18.72 167.736C18.72 169.032 18.744 170.048 18.792 170.784H18.312C18.28 170.208 18.216 169.792 18.12 169.536C18.024 169.264 17.84 169.08 17.568 168.984C17.296 168.888 16.856 168.84 16.248 168.84H10.488V176.64H16.248C16.856 176.64 17.296 176.592 17.568 176.496C17.84 176.4 18.024 176.224 18.12 175.968C18.216 175.696 18.28 175.272 18.312 174.696H18.792C18.744 175.432 18.72 176.448 18.72 177.744C18.72 179.12 18.744 180.144 18.792 180.816H18.312C18.28 180.24 18.216 179.824 18.12 179.568C18.024 179.296 17.84 179.112 17.568 179.016C17.296 178.92 16.856 178.872 16.248 178.872H4.344C3.736 178.872 3.296 178.92 3.024 179.016C2.752 179.112 2.568 179.296 2.472 179.568C2.376 179.824 2.312 180.24 2.28 180.816H1.8C1.848 180.144 1.872 179.12 1.872 177.744C1.872 176.464 1.848 175.448 1.8 174.696H2.28C2.312 175.272 2.376 175.696 2.472 175.968C2.568 176.224 2.752 176.4 3.024 176.496C3.296 176.592 3.736 176.64 4.344 176.64H10.008V168.84H4.344C3.736 168.84 3.296 168.888 3.024 168.984C2.752 169.08 2.568 169.264 2.472 169.536C2.376 169.792 2.312 170.208 2.28 170.784H1.8C1.848 170.048 1.872 169.032 1.872 167.736C1.872 166.36 1.848 165.336 1.8 164.664H2.28Z" fill="#DBD8D1"/>
<path d="M6.096 156.305C6.096 154.673 6.64 153.361 7.728 152.369C8.8 151.361 10.432 150.857 12.624 150.857C14.816 150.857 16.448 151.361 17.52 152.369C18.592 153.361 19.128 154.673 19.128 156.305C19.128 157.937 18.592 159.257 17.52 160.265C16.448 161.257 14.816 161.753 12.624 161.753C10.432 161.753 8.8 161.257 7.728 160.265C6.64 159.257 6.096 157.937 6.096 156.305ZM6.576 156.305C6.576 157.265 7.072 158.025 8.064 158.585C9.04 159.145 10.56 159.425 12.624 159.425C14.688 159.425 16.208 159.145 17.184 158.585C18.16 158.025 18.648 157.265 18.648 156.305C18.648 155.345 18.16 154.585 17.184 154.025C16.208 153.465 14.688 153.185 12.624 153.185C10.56 153.185 9.04 153.465 8.064 154.025C7.072 154.585 6.576 155.345 6.576 156.305Z" fill="#DBD8D1"/>
<path d="M6.096 140.181C6.096 139.333 6.328 138.573 6.792 137.901C7.256 137.213 7.936 136.677 8.832 136.293C9.728 135.909 10.8 135.717 12.048 135.717C13.28 135.717 14.432 135.917 15.504 136.317C16.576 136.701 17.448 137.309 18.12 138.141C18.792 138.957 19.128 139.981 19.128 141.213C19.128 141.821 19.008 142.373 18.768 142.869C18.528 143.365 18.216 143.749 17.832 144.021H20.904C21.56 144.021 22.008 143.829 22.248 143.445C22.504 143.061 22.632 142.485 22.632 141.717H23.136L23.112 142.269C23.064 143.757 23.04 144.725 23.04 145.173C23.04 145.557 23.072 146.421 23.136 147.765H22.632C22.632 147.173 22.52 146.765 22.296 146.541C22.088 146.301 21.704 146.181 21.144 146.181H9.048C8.312 146.181 7.776 146.317 7.44 146.589C7.104 146.861 6.936 147.333 6.936 148.005H6.432C6.48 147.509 6.504 147.013 6.504 146.517C6.504 145.509 6.392 144.677 6.168 144.021H8.712C7.88 143.669 7.24 143.157 6.792 142.485C6.328 141.813 6.096 141.045 6.096 140.181ZM18.576 141.477C18.576 139.189 16.512 138.045 12.384 138.045C8.672 138.045 6.816 138.973 6.816 140.829C6.816 141.549 7.08 142.197 7.608 142.773C8.12 143.349 8.864 143.765 9.84 144.021H17.04C17.504 143.797 17.88 143.469 18.168 143.037C18.44 142.605 18.576 142.085 18.576 141.477Z" fill="#DBD8D1"/>
<path d="M15.912 122.276C16.792 122.564 17.552 123.108 18.192 123.908C18.816 124.692 19.128 125.644 19.128 126.764C19.128 127.9 18.872 128.884 18.36 129.716C17.832 130.548 17.104 131.188 16.176 131.636C15.232 132.068 14.144 132.284 12.912 132.284C11.52 132.284 10.312 132.06 9.288 131.612C8.264 131.164 7.48 130.532 6.936 129.716C6.376 128.9 6.096 127.948 6.096 126.86C6.096 125.42 6.536 124.316 7.416 123.548C8.28 122.764 9.6 122.372 11.376 122.372V129.884C11.824 129.932 12.336 129.956 12.912 129.956C13.968 129.956 14.888 129.788 15.672 129.452C16.456 129.1 17.064 128.644 17.496 128.084C17.912 127.508 18.12 126.908 18.12 126.284C18.12 125.516 17.936 124.836 17.568 124.244C17.2 123.652 16.584 123.156 15.72 122.756L15.912 122.276ZM6.552 126.956C6.552 127.708 6.92 128.356 7.656 128.9C8.392 129.444 9.48 129.78 10.92 129.908V124.676C9.672 124.644 8.632 124.828 7.8 125.228C6.968 125.612 6.552 126.188 6.552 126.956Z" fill="#DBD8D1"/>
<path d="M1.464 96.7665C1.464 95.7585 1.76 94.9265 2.352 94.2705C2.928 93.5985 3.712 93.2625 4.704 93.2625C5.472 93.2625 6.144 93.4705 6.72 93.8865C7.28 94.3025 7.728 94.8545 8.064 95.5425C8.352 96.1505 8.768 97.3345 9.312 99.0945C9.696 98.1985 10.248 97.5425 10.968 97.1265C11.672 96.6945 12.48 96.4785 13.392 96.4785C14.384 96.4785 15.32 96.7745 16.2 97.3665C17.08 97.9585 17.792 98.8065 18.336 99.9105C18.864 101.014 19.128 102.31 19.128 103.798C19.128 105.19 18.888 106.486 18.408 107.686C17.912 108.87 17.216 109.814 16.32 110.518C15.408 111.222 14.352 111.574 13.152 111.574C12.096 111.574 11.208 111.318 10.488 110.806C9.752 110.278 9.2 109.678 8.832 109.006C8.448 108.334 8.184 107.71 8.04 107.134C7.704 107.918 7.256 108.518 6.696 108.934C6.136 109.35 5.552 109.558 4.944 109.558C4.416 109.558 3.928 109.406 3.48 109.102C3.016 108.782 2.648 108.318 2.376 107.71C2.088 107.086 1.944 106.35 1.944 105.502C1.944 104.43 2.184 103.598 2.664 103.006C2.904 102.718 3.176 102.502 3.48 102.358C3.768 102.198 4.048 102.118 4.32 102.118C4.704 102.118 5.016 102.254 5.256 102.526C5.48 102.798 5.592 103.11 5.592 103.462C5.592 103.798 5.488 104.094 5.28 104.35C5.056 104.59 4.76 104.71 4.392 104.71C4.04 104.71 3.744 104.59 3.504 104.35C3.248 104.11 3.104 103.806 3.072 103.438C2.864 103.518 2.688 103.726 2.544 104.062C2.384 104.382 2.304 104.782 2.304 105.262C2.304 106.094 2.56 106.766 3.072 107.278C3.568 107.79 4.264 108.046 5.16 108.046C6.232 108.046 7.144 107.638 7.896 106.822C7.8 106.262 7.752 105.766 7.752 105.334C7.752 105.046 7.8 104.814 7.896 104.638C7.992 104.462 8.128 104.374 8.304 104.374C8.448 104.374 8.56 104.438 8.64 104.566C8.72 104.678 8.76 104.838 8.76 105.046C8.76 105.302 8.712 105.566 8.616 105.838C8.52 106.11 8.392 106.43 8.232 106.798C8.856 108.878 10.168 109.918 12.168 109.918C13.24 109.918 14.168 109.638 14.952 109.078C15.736 108.518 16.336 107.75 16.752 106.774C17.152 105.798 17.352 104.702 17.352 103.486C17.352 102.35 17.176 101.302 16.824 100.342C16.456 99.3665 15.944 98.5985 15.288 98.0385C14.616 97.4625 13.84 97.1745 12.96 97.1745C12.32 97.1745 11.672 97.3425 11.016 97.6785C10.36 98.0145 9.848 98.6545 9.48 99.5985C9.864 100.846 10.168 101.766 10.392 102.358C10.648 103.03 10.944 103.55 11.28 103.918C11.6 104.286 12 104.47 12.48 104.47C13.056 104.47 13.52 104.238 13.872 103.774C14.224 103.294 14.4 102.79 14.4 102.262C14.4 101.99 14.352 101.694 14.256 101.374C14.16 101.054 14.032 100.87 13.872 100.822C13.808 101.126 13.68 101.39 13.488 101.614C13.296 101.838 13.016 101.95 12.648 101.95C12.264 101.95 11.96 101.83 11.736 101.59C11.512 101.334 11.4 101.014 11.4 100.63C11.4 100.246 11.52 99.9425 11.76 99.7185C12 99.4785 12.312 99.3585 12.696 99.3585C13.336 99.3585 13.84 99.6545 14.208 100.246C14.576 100.838 14.76 101.494 14.76 102.214C14.76 102.998 14.528 103.694 14.064 104.302C13.584 104.894 12.88 105.19 11.952 105.19C11.136 105.19 10.448 104.918 9.888 104.374C9.312 103.814 8.832 102.982 8.448 101.878L7.944 100.174C7.672 99.2145 7.432 98.4145 7.224 97.7745C7.016 97.1345 6.792 96.5505 6.552 96.0225C6.2 95.2545 5.84 94.7185 5.472 94.4145C5.104 94.1105 4.696 93.9585 4.248 93.9585C3.576 93.9585 3.008 94.2385 2.544 94.7985C2.064 95.3425 1.824 95.9905 1.824 96.7425C1.824 97.1425 1.896 97.3825 2.04 97.4625C2.136 97.2545 2.296 97.0945 2.52 96.9825C2.728 96.8545 2.936 96.7905 3.144 96.7905C3.48 96.7905 3.76 96.9265 3.984 97.1985C4.208 97.4545 4.32 97.7665 4.32 98.1345C4.32 98.4705 4.216 98.7665 4.008 99.0225C3.8 99.2785 3.504 99.4065 3.12 99.4065C2.544 99.4065 2.128 99.1425 1.872 98.6145C1.6 98.0705 1.464 97.4545 1.464 96.7665Z" fill="#DBD8D1"/>
<path d="M1.536 78.264C1.536 77.56 1.616 77.008 1.776 76.608C1.92 76.192 2.136 75.768 2.424 75.336C2.648 74.984 2.76 74.712 2.76 74.52C2.76 74.376 2.68 74.264 2.52 74.184C2.344 74.104 2.072 74.04 1.704 73.992V73.44C2.632 73.52 4.264 73.56 6.6 73.56V74.112C5.304 74.208 4.216 74.584 3.336 75.24C2.44 75.88 1.992 76.816 1.992 78.048C1.992 78.912 2.256 79.616 2.784 80.16C3.296 80.704 3.96 80.976 4.776 80.976C5.384 80.976 5.912 80.84 6.36 80.568C6.808 80.28 7.192 79.92 7.512 79.488C7.832 79.056 8.24 78.44 8.736 77.64L9.168 76.944C9.792 75.936 10.344 75.144 10.824 74.568C11.288 73.976 11.824 73.504 12.432 73.152C13.04 72.8 13.752 72.624 14.568 72.624C16.024 72.624 17.152 73.104 17.952 74.064C18.736 75.024 19.128 76.24 19.128 77.712C19.128 78.48 19.048 79.112 18.888 79.608C18.728 80.088 18.512 80.552 18.24 81C18.016 81.352 17.904 81.624 17.904 81.816C17.904 81.96 17.992 82.072 18.168 82.152C18.328 82.232 18.592 82.296 18.96 82.344V82.896C18.08 82.832 16.16 82.8 13.2 82.8V82.248C14.816 82.136 16.128 81.736 17.136 81.048C18.144 80.36 18.648 79.304 18.648 77.88C18.648 77.016 18.384 76.28 17.856 75.672C17.312 75.064 16.512 74.76 15.456 74.76C14.56 74.76 13.8 75.064 13.176 75.672C12.552 76.264 11.848 77.208 11.064 78.504C10.488 79.448 9.976 80.216 9.528 80.808C9.08 81.384 8.544 81.856 7.92 82.224C7.28 82.592 6.536 82.776 5.688 82.776C4.344 82.776 3.32 82.344 2.616 81.48C1.896 80.616 1.536 79.544 1.536 78.264Z" fill="#DBD8D1"/>
<path d="M6.096 63.6711C6.096 62.0391 6.64 60.7271 7.728 59.7351C8.8 58.727 10.432 58.223 12.624 58.223C14.816 58.223 16.448 58.727 17.52 59.7351C18.592 60.7271 19.128 62.0391 19.128 63.6711C19.128 65.3031 18.592 66.6231 17.52 67.6311C16.448 68.6231 14.816 69.119 12.624 69.119C10.432 69.119 8.8 68.6231 7.728 67.6311C6.64 66.6231 6.096 65.3031 6.096 63.6711ZM6.576 63.6711C6.576 64.6311 7.072 65.391 8.064 65.951C9.04 66.511 10.56 66.7911 12.624 66.7911C14.688 66.7911 16.208 66.511 17.184 65.951C18.16 65.391 18.648 64.6311 18.648 63.6711C18.648 62.7111 18.16 61.9511 17.184 61.3911C16.208 60.8311 14.688 60.5511 12.624 60.5511C10.56 60.5511 9.04 60.8311 8.064 61.3911C7.072 61.9511 6.576 62.7111 6.576 63.6711Z" fill="#DBD8D1"/>
<path d="M6.096 47.7386C6.096 47.0986 6.28 46.5786 6.648 46.1786C7.016 45.7626 7.464 45.5546 7.992 45.5546C8.408 45.5546 8.768 45.6826 9.072 45.9386C9.36 46.1786 9.504 46.5066 9.504 46.9226C9.504 47.2746 9.392 47.5786 9.168 47.8346C8.944 48.0746 8.64 48.1946 8.256 48.1946C7.728 48.1946 7.296 47.9226 6.96 47.3786C6.8 47.4906 6.72 47.6586 6.72 47.8826C6.72 48.5066 6.968 49.0746 7.464 49.5866C7.944 50.0986 8.536 50.4986 9.24 50.7866C9.944 51.0746 10.608 51.2186 11.232 51.2186H16.32C17.056 51.2186 17.568 51.0106 17.856 50.5946C18.144 50.1626 18.288 49.5226 18.288 48.6746H18.792L18.768 49.2506C18.72 50.8826 18.696 51.9226 18.696 52.3706C18.696 52.7866 18.728 53.7306 18.792 55.2026H18.288C18.288 54.5306 18.168 54.0586 17.928 53.7866C17.672 53.5146 17.216 53.3786 16.56 53.3786H9.048C8.312 53.3786 7.776 53.5146 7.44 53.7866C7.104 54.0586 6.936 54.5306 6.936 55.2026H6.432C6.48 54.6906 6.504 54.1946 6.504 53.7146C6.504 52.7066 6.392 51.8746 6.168 51.2186H9.168C8.368 50.9306 7.656 50.4746 7.032 49.8506C6.408 49.2106 6.096 48.5066 6.096 47.7386Z" fill="#DBD8D1"/>
<path d="M6.096 35.8511C6.096 35.2111 6.28 34.6911 6.648 34.2911C7.016 33.8751 7.464 33.6671 7.992 33.6671C8.408 33.6671 8.768 33.7951 9.072 34.0511C9.36 34.2911 9.504 34.6191 9.504 35.0351C9.504 35.3871 9.392 35.6911 9.168 35.9471C8.944 36.1871 8.64 36.3071 8.256 36.3071C7.728 36.3071 7.296 36.0351 6.96 35.4911C6.8 35.6031 6.72 35.7711 6.72 35.9951C6.72 36.6191 6.968 37.1871 7.464 37.6991C7.944 38.2111 8.536 38.6111 9.24 38.8991C9.944 39.1871 10.608 39.3311 11.232 39.3311H16.32C17.056 39.3311 17.568 39.1231 17.856 38.7071C18.144 38.2751 18.288 37.6351 18.288 36.7871H18.792L18.768 37.3631C18.72 38.9951 18.696 40.0351 18.696 40.4831C18.696 40.8991 18.728 41.8431 18.792 43.3151H18.288C18.288 42.6431 18.168 42.1711 17.928 41.8991C17.672 41.6271 17.216 41.4911 16.56 41.4911H9.048C8.312 41.4911 7.776 41.6271 7.44 41.8991C7.104 42.1711 6.936 42.6431 6.936 43.3151H6.432C6.48 42.8031 6.504 42.3071 6.504 41.8271C6.504 40.8191 6.392 39.9871 6.168 39.3311H9.168C8.368 39.0431 7.656 38.5871 7.032 37.9631C6.408 37.3231 6.096 36.6191 6.096 35.8511Z" fill="#DBD8D1"/>
<path d="M6.096 26.0164C6.096 24.3844 6.64 23.0724 7.728 22.0804C8.8 21.0724 10.432 20.5684 12.624 20.5684C14.816 20.5684 16.448 21.0724 17.52 22.0804C18.592 23.0724 19.128 24.3844 19.128 26.0164C19.128 27.6484 18.592 28.9684 17.52 29.9764C16.448 30.9684 14.816 31.4644 12.624 31.4644C10.432 31.4644 8.8 30.9684 7.728 29.9764C6.64 28.9684 6.096 27.6484 6.096 26.0164ZM6.576 26.0164C6.576 26.9764 7.072 27.7364 8.064 28.2964C9.04 28.8564 10.56 29.1364 12.624 29.1364C14.688 29.1364 16.208 28.8564 17.184 28.2964C18.16 27.7364 18.648 26.9764 18.648 26.0164C18.648 25.0564 18.16 24.2964 17.184 23.7364C16.208 23.1764 14.688 22.8964 12.624 22.8964C10.56 22.8964 9.04 23.1764 8.064 23.7364C7.072 24.2964 6.576 25.0564 6.576 26.0164Z" fill="#DBD8D1"/>
<path d="M6.504 1.824C6.504 1.12 6.48 0.512 6.432 0H6.912C6.96 0.335999 7.112 0.631999 7.368 0.888C7.608 1.144 8.016 1.368 8.592 1.56L18.912 5.04V5.448L9.264 9.24L18.912 12.672V13.08L8.28 17.016C7.72 17.24 7.36 17.472 7.2 17.712C7.024 17.936 6.936 18.168 6.936 18.408H6.432C6.528 17.784 6.576 17.08 6.576 16.296C6.576 15.496 6.528 14.456 6.432 13.176H6.936C6.936 13.768 6.984 14.2 7.08 14.472C7.176 14.728 7.424 14.856 7.824 14.856C8.112 14.856 8.488 14.776 8.952 14.616L15.864 12.216L6.336 8.76V8.208L16.032 4.536L9.168 2.28C8.736 2.136 8.376 2.064 8.088 2.064C7.704 2.064 7.424 2.2 7.248 2.472C7.072 2.744 6.96 3.2 6.912 3.84H6.432C6.48 2.992 6.504 2.32 6.504 1.824Z" fill="#DBD8D1"/>
</svg>
